<svg width="32" height="32" viewBox="0 0 32 32" fill="none" xmlns="http://www.w3.org/2000/svg">
<circle cx="16" cy="16" r="16" fill="#FF9D74"/>
<path d="M24.6502 24.264C24.3422 23.692 24.0782 23.076 23.5282 21.668L18.6442 8.974C18.1382 7.632 18.0062 7.28 17.8962 6.752H14.0682C13.9582 7.324 13.7822 7.874 13.3642 8.974L8.52421 21.668C8.12821 22.68 7.68821 23.67 7.35821 24.264H10.9662C11.1422 23.34 11.2302 23.01 11.6262 21.954L12.5062 19.556H19.5462L20.4262 21.954C20.6682 22.592 20.9102 23.538 21.0422 24.264H24.6502ZM18.7542 17.026H13.2982L15.5862 10.514C15.6522 10.316 15.6522 10.316 16.0042 9.282C16.2462 10.008 16.3122 10.272 16.4002 10.514L18.7542 17.026Z" fill="white"/>
</svg>
