<svg width="317" height="100" viewBox="0 0 317 100" fill="none" xmlns="http://www.w3.org/2000/svg">
<g filter="url(#filter0_d_647_2862)">
<rect x="8.5" y="4" width="300" height="84" rx="42" fill="url(#paint0_linear_647_2862)"/>
</g>
<path d="M46.3668 43.424H45.1188V40.928H46.3668V43.424ZM46.3668 48.992H45.1188V46.52H46.3668V48.992ZM36.9828 46.52H38.1588V48.992H36.9828V46.52ZM42.2388 46.52V48.992H41.0388V46.52H42.2388ZM41.0388 43.424V40.928H42.2388V43.424H41.0388ZM36.9828 40.928H38.1588V43.424H36.9828V40.928ZM33.9108 43.424H30.7188V46.52H33.9108V48.992H31.1268V52.088H52.1988V48.992H49.5588V46.52H52.5588V43.424H49.5588V40.928H51.6948V37.88H37.6548C37.9428 37.424 38.1828 36.968 38.4228 36.488L34.9908 35.48C33.9828 37.616 32.0868 39.728 30.0708 40.976C30.8868 41.504 32.2788 42.608 32.9268 43.256C33.2628 43.016 33.5748 42.728 33.9108 42.416V43.424ZM33.8148 58.304C34.9188 56.984 35.9028 54.992 36.4068 53.12L32.9988 52.304C32.4708 54.056 31.4388 55.952 30.4308 56.96L33.8148 58.304ZM37.3908 53.264C37.6548 54.8 37.8228 56.816 37.8228 58.016L41.2548 57.512C41.2308 56.312 40.9428 54.368 40.6308 52.88L37.3908 53.264ZM42.0948 53.36C42.5988 54.872 43.1028 56.84 43.2228 58.04L46.7268 57.368C46.5348 56.144 45.9588 54.248 45.3828 52.808L42.0948 53.36ZM46.7988 53.24C47.8068 54.824 49.0308 56.96 49.5108 58.28L53.1108 57.104C52.5108 55.736 51.1908 53.696 50.1588 52.208L46.7988 53.24ZM70.5348 39.44C69.7428 38.552 68.0148 37.352 66.6948 36.56L65.0148 38.912C66.3348 39.8 68.0148 41.12 68.7348 42.056L70.5348 39.44ZM64.0068 44.96C65.3748 45.824 67.1508 47.144 67.9428 48.056L69.6948 45.272C68.8308 44.384 67.0068 43.208 65.6388 42.464L64.0068 44.96ZM57.3108 42.56C57.2148 41.024 56.7828 38.672 56.1828 36.872L53.7828 37.496C54.3108 39.296 54.7188 41.696 54.7428 43.232L57.3108 42.56ZM76.7508 51.368L76.2468 48.128L73.9908 48.536V35.456H70.7268V49.112L63.9828 50.312C63.3588 49.568 61.3668 47.384 60.6468 46.784V46.688H63.9828V43.448H60.6468V42.536L62.7828 43.088C63.3588 41.648 64.0548 39.344 64.6788 37.328L61.7748 36.728C61.5588 38.408 61.0788 40.76 60.6468 42.344V35.624H57.4308V43.448H53.9268V46.688H56.3028C55.6068 48.632 54.5508 50.888 53.4468 52.232C53.9508 53.216 54.6948 54.8 54.9828 55.88C55.8948 54.488 56.7348 52.52 57.4308 50.456V58.208H60.6468V50.624C61.1748 51.536 61.6788 52.448 61.9908 53.144L63.9588 50.6L64.4388 53.6L70.7268 52.472V58.256H73.9908V51.872L76.7508 51.368ZM97.1988 39.848C96.7668 39.008 95.9268 37.448 95.3268 36.56L93.0708 37.472C93.7188 38.408 94.4148 39.824 94.9188 40.808L97.1988 39.848ZM89.0148 41C89.0628 40.376 89.0868 39.704 89.1108 39.032C89.1348 38.456 89.2068 37.352 89.2788 36.776H85.0068C85.1028 37.352 85.1988 38.576 85.1988 39.104C85.1988 39.752 85.1988 40.376 85.1748 41H82.1748C81.2628 41 79.8948 40.928 78.7908 40.808V44.6C79.8948 44.504 81.4308 44.48 82.1748 44.48H84.8868C84.4548 47.504 83.4468 50 81.3588 52.16C80.2548 53.312 78.9348 54.2 77.8068 54.824L81.1908 57.56C85.6308 54.368 87.8148 50.552 88.6788 44.48H93.3588C93.3588 47.096 93.0228 51.272 92.4468 52.592C92.2068 53.192 91.9428 53.48 91.1268 53.48C90.2148 53.48 88.9908 53.336 87.8628 53.12L88.3188 57.008C89.4468 57.104 90.8868 57.224 92.3748 57.224C94.1988 57.224 95.2068 56.48 95.7348 55.16C96.7428 52.64 97.0548 46.088 97.1508 43.328C97.1508 43.088 97.2468 42.392 97.3188 42.008L94.8468 40.808C94.1748 40.928 93.4548 41 92.8548 41H89.0148ZM96.0228 36.32C96.6708 37.232 97.4388 38.648 97.9188 39.632L100.175 38.672C99.7668 37.856 98.9028 36.32 98.2788 35.408L96.0228 36.32ZM115.439 44.192C117.743 42.704 119.831 40.928 121.751 39.056L118.631 36.248C117.263 38.072 114.791 40.208 112.367 41.72C109.679 43.4 105.647 45.152 101.351 46.04L103.415 49.568C106.031 48.872 108.839 47.744 111.263 46.544V53.768C111.263 54.92 111.167 56.6 111.071 57.248H115.679C115.487 56.576 115.439 54.92 115.439 53.768V44.192ZM143.494 39.368C143.062 38.528 142.222 36.968 141.622 36.08L139.366 36.992C139.87 37.712 140.398 38.72 140.83 39.584C140.254 39.704 139.534 39.776 138.91 39.776H134.926C135.286 39.152 135.838 38.216 136.366 37.472L132.166 36.176C131.902 37.112 131.326 38.36 130.894 39.032C129.622 41.048 127.534 44.168 123.286 46.784L126.43 49.208C128.686 47.648 130.99 45.344 132.742 43.064H138.91C138.622 44.264 137.758 45.968 136.75 47.456C135.31 46.616 133.846 45.824 132.67 45.2L130.198 47.984C131.326 48.632 132.766 49.52 134.23 50.48C132.358 52.352 129.814 54.2 125.59 55.52L128.974 58.448C132.694 57.008 135.382 54.968 137.494 52.712C138.358 53.336 139.15 53.936 139.726 54.44L142.366 51.008C141.766 50.576 140.974 50.048 140.086 49.472C141.622 47.24 142.678 44.936 143.278 43.256C143.542 42.536 143.902 41.816 144.214 41.288L142.078 39.968L143.494 39.368ZM142.318 35.84C142.966 36.752 143.734 38.168 144.214 39.152L146.47 38.192C146.062 37.376 145.198 35.84 144.574 34.928L142.318 35.84ZM152.23 37.376L149.47 40.328C151.198 41.552 154.222 44.192 155.494 45.584L158.47 42.536C157.03 41 153.886 38.504 152.23 37.376ZM148.678 53.312L151.15 57.152C154.174 56.672 157.294 55.424 159.742 53.984C163.75 51.632 167.158 48.296 169.078 44.888L166.822 40.784C165.214 44.168 161.974 47.888 157.654 50.384C155.302 51.752 152.206 52.832 148.678 53.312ZM187.401 37.856C186.849 38.048 185.721 38.216 184.521 38.216H176.505C175.809 38.216 174.273 38.144 173.433 38.024V42.152C174.105 42.104 175.425 41.96 176.505 41.96H183.969C183.465 43.496 182.169 45.608 180.609 47.384C178.473 49.76 174.681 52.712 170.793 54.128L173.817 57.272C176.961 55.76 180.105 53.336 182.625 50.72C184.785 52.808 186.825 55.112 188.361 57.296L191.697 54.392C190.377 52.76 187.497 49.712 185.169 47.696C186.729 45.536 188.001 43.136 188.793 41.36C189.057 40.76 189.561 39.92 189.777 39.608L187.401 37.856ZM208.185 52.424C208.161 51.368 208.113 49.76 208.089 48.464C209.337 47.912 210.489 47.456 211.401 47.12C212.313 46.76 213.801 46.208 214.641 45.968L213.225 42.656C212.217 43.136 211.233 43.592 210.201 44.048C209.361 44.432 208.593 44.744 207.633 45.2C207.009 44.096 205.857 43.52 204.465 43.52C203.793 43.52 202.593 43.616 202.113 43.76C202.425 43.28 202.737 42.704 203.025 42.08C205.569 41.984 208.473 41.768 210.705 41.48L210.729 38.144C208.737 38.504 206.457 38.696 204.321 38.816C204.585 37.928 204.753 37.184 204.849 36.656L201.057 36.344C201.033 36.944 200.913 37.856 200.649 38.936H199.713C198.441 38.936 196.617 38.84 195.441 38.648V41.984C196.689 42.104 198.417 42.152 199.401 42.152C198.249 44.336 196.569 46.28 194.313 48.272L197.385 50.576C198.201 49.496 198.873 48.632 199.593 47.888C200.409 47.096 201.873 46.304 203.097 46.304C203.553 46.304 204.033 46.424 204.393 46.784C201.753 48.176 198.921 50.168 198.921 53.264C198.921 56.432 201.729 57.44 205.641 57.44C207.993 57.44 211.041 57.224 212.505 57.032L212.625 53.312C210.537 53.768 207.825 54.056 205.713 54.056C203.481 54.056 202.737 53.648 202.737 52.64C202.737 51.68 203.385 50.912 204.873 50.048C204.849 50.936 204.801 51.824 204.753 52.424H208.185ZM230.097 48.968V47.072H234.705V48.968H230.097ZM221.961 48.968V47.072H226.449V48.968H221.961ZM226.449 42.032V43.88H221.961V42.032H226.449ZM234.705 42.032V43.88H230.097V42.032H234.705ZM230.097 38.696V35.48H226.449V38.696H218.481V53.528H221.961V52.304H226.449V58.28H230.097V52.304H234.705V53.384H238.353V38.696H230.097ZM252.825 41.576C252.153 46.016 250.401 49.472 247.137 51.368C247.929 51.968 249.297 53.336 249.801 54.008C252.153 52.376 253.881 50 255.057 47C256.089 49.904 257.769 52.328 260.481 53.984C261.105 53.144 262.377 51.872 263.193 51.296C258.081 48.752 256.857 42.92 256.617 36.368H249.561V39.656H253.641C253.689 40.352 253.761 41.048 253.857 41.72L252.825 41.576ZM247.281 39.608C246.465 38.504 244.713 37.016 243.345 36.032L240.753 38.12C242.121 39.2 243.801 40.808 244.497 41.912L247.281 39.608ZM246.729 44.768H240.849V47.984H243.321V52.448C242.313 53.168 241.209 53.84 240.225 54.392L241.905 58.04C243.201 57.008 244.209 56.144 245.193 55.28C246.777 57.128 248.673 57.728 251.529 57.848C254.529 57.992 259.305 57.944 262.353 57.776C262.521 56.744 263.073 55.064 263.457 54.224C260.001 54.536 254.529 54.608 251.601 54.488C249.249 54.392 247.617 53.792 246.729 52.304V44.768ZM286.377 43.136C285.321 41.888 282.705 39.44 281.169 38.504L278.745 40.904C280.137 41.912 282.417 44.168 283.785 45.8L286.377 43.136ZM268.137 48.68C268.137 47.528 268.785 46.76 269.601 46.76C270.177 46.76 270.561 47.216 270.561 48.008C270.561 49.232 270.177 50.072 269.265 50.072C268.689 50.072 268.137 49.568 268.137 48.68ZM280.137 48.152C280.305 49.352 280.329 50.288 280.329 51.224C280.329 52.256 279.945 53.096 278.721 53.48C277.785 53.768 276.417 53.912 275.289 53.912C272.841 53.912 272.625 53.384 272.625 52.52V51.896C273.441 50.888 273.849 49.448 273.849 47.864C273.849 46.832 273.609 45.968 273.105 45.296V42.488C274.401 42.344 275.817 42.152 277.161 41.84V38.384C275.769 38.768 274.425 39.032 273.105 39.2C273.129 37.88 273.249 37.136 273.369 36.44H269.361C269.529 37.184 269.625 37.904 269.625 39.464H269.073C267.993 39.464 266.457 39.32 265.185 39.152L265.401 42.512C267.057 42.656 268.329 42.704 269.337 42.704H269.625V43.904C267.009 44 265.137 46.016 265.137 48.992C265.137 52.184 266.961 53.528 268.905 53.528H269.073V53.696C269.073 55.28 269.049 57.392 275.025 57.392C276.657 57.392 279.225 57.224 280.329 56.864C283.401 55.88 283.929 54.368 284.073 52.28C284.145 51.272 284.121 50.744 284.121 49.352L280.137 48.152Z" fill="white"/>
<defs>
<filter id="filter0_d_647_2862" x="0.5" y="0" width="316" height="100" filterUnits="userSpaceOnUse" color-interpolation-filters="sRGB">
<feFlood flood-opacity="0" result="BackgroundImageFix"/>
<feColorMatrix in="SourceAlpha" type="matrix" values="0 0 0 0 0 0 0 0 0 0 0 0 0 0 0 0 0 0 127 0" result="hardAlpha"/>
<feOffset dy="4"/>
<feGaussianBlur stdDeviation="4"/>
<feComposite in2="hardAlpha" operator="out"/>
<feColorMatrix type="matrix" values="0 0 0 0 0 0 0 0 0 0 0 0 0 0 0 0 0 0 0.25 0"/>
<feBlend mode="normal" in2="BackgroundImageFix" result="effect1_dropShadow_647_2862"/>
<feBlend mode="normal" in="SourceGraphic" in2="effect1_dropShadow_647_2862" result="shape"/>
</filter>
<linearGradient id="paint0_linear_647_2862" x1="8.5" y1="46" x2="308.5" y2="46" gradientUnits="userSpaceOnUse">
<stop stop-color="#8C00FF"/>
<stop offset="0.3389" stop-color="#AA00AA"/>
<stop offset="0.6649" stop-color="#FF0078"/>
<stop offset="1" stop-color="#FFAA00"/>
</linearGradient>
</defs>
</svg>
