<svg width="15" height="14" viewBox="0 0 15 14" fill="none" xmlns="http://www.w3.org/2000/svg">
<path d="M1.02539 11.9292C0.618652 12.3359 0.610352 13.0581 1.03369 13.4814C1.46533 13.9048 2.1875 13.8965 2.58594 13.498L7.5 8.58398L12.4058 13.4897C12.8208 13.9048 13.5347 13.9048 13.958 13.4814C14.3813 13.0498 14.3813 12.3442 13.9663 11.9292L9.06055 7.02344L13.9663 2.10938C14.3813 1.69434 14.3896 0.980469 13.958 0.557129C13.5347 0.133789 12.8208 0.133789 12.4058 0.548828L7.5 5.45459L2.58594 0.548828C2.1875 0.14209 1.45703 0.125488 1.03369 0.557129C0.610352 0.980469 0.618652 1.71094 1.02539 2.10938L5.93115 7.02344L1.02539 11.9292Z" fill="black"/>
</svg>
