<svg width="227" height="9" viewBox="0 0 227 9" fill="none" xmlns="http://www.w3.org/2000/svg">
<path d="M5.90653 3.05016C5.71453 2.53816 5.56253 2.28216 5.25853 1.98616C4.80253 1.54616 4.19453 1.33016 3.42653 1.33016C2.65853 1.33016 2.04253 1.56216 1.57053 2.01816C0.962534 2.61016 0.626534 3.49816 0.626534 4.54616C0.626534 5.55416 0.938534 6.43416 1.49853 7.00216C1.96253 7.48216 2.62653 7.73016 3.41853 7.73016C4.32253 7.73016 5.07453 7.40216 5.52253 6.81816C5.73053 6.54616 5.84253 6.29016 5.98653 5.79416L5.18653 5.62616C5.11453 5.98616 5.04253 6.17816 4.87453 6.41016C4.57053 6.82616 4.05853 7.05816 3.44253 7.05816C2.20253 7.05816 1.41053 6.07416 1.41053 4.52216C1.41053 2.97016 2.18653 2.00216 3.44253 2.00216C3.99453 2.00216 4.45853 2.19416 4.76253 2.55416C4.93053 2.75416 5.01853 2.91416 5.13053 3.25816L5.90653 3.05016Z" fill="white"/>
<path d="M9.58353 1.33016C7.86353 1.33016 6.75153 2.58616 6.75153 4.53016C6.75153 6.49016 7.85553 7.73816 9.57553 7.73816C11.3035 7.73816 12.4075 6.48216 12.4075 4.53016C12.4075 2.57016 11.3115 1.33016 9.58353 1.33016ZM9.59154 7.06616C8.34354 7.06616 7.52753 6.05816 7.52753 4.53016C7.52753 2.99416 8.33553 2.00216 9.58353 2.00216C10.1115 2.00216 10.5835 2.18616 10.9355 2.53816C11.3835 2.98616 11.6235 3.67416 11.6235 4.53816C11.6235 6.08216 10.8315 7.06616 9.59154 7.06616Z" fill="white"/>
<path d="M14.2767 7.61816C14.2287 7.33016 14.2127 7.07416 14.2127 6.67416V5.16216H15.9247C17.2207 5.16216 17.9647 4.46616 17.9647 3.25016C17.9647 2.09816 17.2527 1.45016 15.9647 1.45016H14.3167C13.9407 1.45016 13.6927 1.44216 13.4047 1.42616C13.4527 1.77016 13.4687 2.01816 13.4687 2.37016V6.68216C13.4687 7.08216 13.4527 7.31416 13.4047 7.61816H14.2767ZM14.2127 4.50616V2.10616H15.9247C16.7567 2.10616 17.1887 2.51416 17.1887 3.28216C17.1887 4.06616 16.7327 4.50616 15.9247 4.50616H14.2127Z" fill="white"/>
<path d="M21.4909 7.61816C21.4429 7.33016 21.4269 7.07416 21.4269 6.68216V5.05816L23.2669 2.17816C23.4589 1.88216 23.6589 1.59416 23.7789 1.45016H22.7549C22.6909 1.65016 22.5949 1.84216 22.3709 2.20216L21.0429 4.35416L19.7229 2.20216C19.4909 1.81816 19.4029 1.65016 19.3389 1.45016H18.3149C18.4909 1.69016 18.6589 1.93016 18.8189 2.17816L20.6669 5.05016V6.68216C20.6669 7.06616 20.6429 7.32216 20.6029 7.61816H21.4909Z" fill="white"/>
<path d="M29.515 7.61816C29.403 7.42616 29.259 7.13016 29.147 6.85816C28.891 6.26616 28.699 5.85016 28.523 5.50616C28.235 4.94616 28.035 4.73016 27.715 4.62616C28.147 4.52216 28.347 4.42616 28.579 4.21016C28.883 3.92216 29.027 3.54616 29.027 3.03416C29.027 2.01016 28.379 1.45016 27.195 1.45016H25.395C25.003 1.45016 24.755 1.44216 24.475 1.42616C24.523 1.76216 24.539 2.01016 24.539 2.37816V6.67416C24.539 7.09816 24.523 7.31416 24.475 7.61816H25.347C25.299 7.33016 25.283 7.09816 25.283 6.67416V4.86616H26.667C27.299 4.86616 27.611 5.17816 28.067 6.27416C28.395 7.06616 28.499 7.36216 28.531 7.61816H29.515ZM25.283 4.21016V2.10616H27.139C27.867 2.10616 28.251 2.45016 28.251 3.10616C28.251 3.43416 28.155 3.69016 27.963 3.88216C27.747 4.09016 27.435 4.21016 27.099 4.21016H25.283Z" fill="white"/>
<path d="M30.3812 1.45016C30.4292 1.74616 30.4452 1.95416 30.4452 2.38616V6.68216C30.4452 7.10616 30.4292 7.31416 30.3812 7.61816H31.2692C31.2212 7.33816 31.2052 7.06616 31.2052 6.68216V2.38616C31.2052 2.01016 31.2212 1.73816 31.2692 1.45016H30.3812Z" fill="white"/>
<path d="M36.6912 5.10616V6.62616C36.2352 6.92216 35.7472 7.05816 35.1392 7.05816C34.5232 7.05816 34.0352 6.86616 33.6912 6.48216C33.2752 6.02616 33.0512 5.33816 33.0512 4.49816C33.0512 2.95416 33.8272 1.98616 35.0672 1.98616C35.9392 1.98616 36.4272 2.31416 36.7072 3.08216L37.4752 2.85816C37.2992 2.41816 37.1472 2.18616 36.8832 1.93016C36.4512 1.52216 35.8512 1.31416 35.1072 1.31416C33.3792 1.31416 32.2672 2.55416 32.2672 4.49816C32.2672 5.53816 32.5872 6.43416 33.1632 7.00216C33.6512 7.47416 34.2912 7.70616 35.1552 7.70616C36.0352 7.70616 36.6272 7.53816 37.4672 7.03416C37.4192 6.69816 37.4112 6.50616 37.4112 6.10616V5.34616C37.4112 4.96216 37.4192 4.77016 37.4672 4.41016C37.2352 4.43416 37.0112 4.44216 36.5872 4.44216H36.3072C35.8432 4.44216 35.6432 4.43416 35.4112 4.39416V5.15416C35.6272 5.11416 35.8192 5.10616 36.2352 5.10616H36.6912Z" fill="white"/>
<path d="M42.8325 1.45016C42.8805 1.73016 42.8965 1.98616 42.8965 2.38616V4.03416H39.3845V2.37016C39.3845 1.97816 39.4005 1.75416 39.4485 1.45016H38.5765C38.6245 1.74616 38.6405 1.97016 38.6405 2.38616V6.68216C38.6405 7.09816 38.6245 7.34616 38.5765 7.61816H39.4485C39.4005 7.32216 39.3845 7.09816 39.3845 6.68216V4.71416H42.8965V6.68216C42.8965 7.09016 42.8805 7.32216 42.8325 7.61816H43.7045C43.6565 7.30616 43.6405 7.09816 43.6405 6.68216V2.37016C43.6405 1.97016 43.6565 1.76216 43.7045 1.45016H42.8325Z" fill="white"/>
<path d="M47.3365 2.12216H48.5045C48.9925 2.12216 49.2485 2.13816 49.5205 2.17816V1.39416C49.2565 1.43416 49.0165 1.45016 48.5045 1.45016H45.3765C44.9365 1.45016 44.7285 1.43416 44.4165 1.39416V2.17816C44.6805 2.13816 44.9605 2.12216 45.3845 2.12216H46.5845V6.67416C46.5845 7.07416 46.5605 7.37816 46.5205 7.61816H47.4005C47.3525 7.32216 47.3365 7.07416 47.3365 6.67416V2.12216Z" fill="white"/>
<path d="M66.1773 1.33016C64.4573 1.33016 63.3453 2.58616 63.3453 4.53016C63.3453 6.49016 64.4493 7.73816 66.1693 7.73816C67.8973 7.73816 69.0013 6.48216 69.0013 4.53016C69.0013 2.57016 67.9053 1.33016 66.1773 1.33016ZM66.1853 7.06616C64.9373 7.06616 64.1213 6.05816 64.1213 4.53016C64.1213 2.99416 64.9293 2.00216 66.1773 2.00216C66.7053 2.00216 67.1773 2.18616 67.5293 2.53816C67.9773 2.98616 68.2173 3.67416 68.2173 4.53816C68.2173 6.08216 67.4253 7.06616 66.1853 7.06616Z" fill="white"/>
<path d="M69.9984 1.45016C70.0464 1.74616 70.0624 2.00216 70.0624 2.38616V6.59416C70.0624 7.05016 70.0464 7.37016 69.9984 7.61816H70.8624C70.8144 7.34616 70.7984 7.05016 70.7984 6.59416V3.77016C70.7984 3.43416 70.7824 2.87416 70.7504 2.38616C70.8864 2.65016 71.1344 3.07416 71.2224 3.21016L73.6384 6.85816C73.8704 7.21016 73.9664 7.36216 74.0864 7.61816H75.0704C75.0224 7.34616 75.0064 7.09816 75.0064 6.68216V2.42616C75.0064 1.99416 75.0224 1.74616 75.0704 1.45016H74.2064C74.2544 1.73816 74.2704 2.01016 74.2704 2.41816V5.31416C74.2704 5.57016 74.2864 6.05816 74.3184 6.69816C74.1424 6.37816 73.9024 5.98616 73.7664 5.78616L71.3824 2.21016C71.1424 1.84216 71.0224 1.62616 70.9584 1.45016H69.9984Z" fill="white"/>
<path d="M81.7117 7.61816C81.5917 7.41016 81.4877 7.17816 81.2877 6.69016L79.4957 2.21016C79.3037 1.73016 79.2637 1.61016 79.2237 1.45016H78.2477C78.2077 1.64216 78.1437 1.82616 77.9917 2.21016L76.2077 6.69016C76.0157 7.17016 75.9277 7.36216 75.7837 7.61816H76.7517C76.8077 7.33016 76.8717 7.12216 76.9997 6.79416L77.3837 5.80216H80.1117L80.5037 6.79416C80.5917 7.03416 80.6877 7.34616 80.7437 7.61816H81.7117ZM79.8877 5.14616H77.6077L78.5757 2.58616C78.5917 2.54616 78.6157 2.46616 78.6557 2.35416C78.6717 2.29816 78.7037 2.20216 78.7437 2.09016C78.8877 2.51416 78.8877 2.51416 78.9117 2.58616L79.8877 5.14616Z" fill="white"/>
<path d="M82.4687 6.65816C82.4687 7.08216 82.4527 7.32216 82.4047 7.63416C82.6927 7.61816 82.8927 7.61816 83.3167 7.61816H84.7007C85.5407 7.61816 86.2047 7.37816 86.6927 6.90616C87.2687 6.34616 87.5727 5.51416 87.5727 4.47416C87.5727 3.48216 87.2927 2.69016 86.7407 2.16216C86.2607 1.68216 85.5807 1.45016 84.6927 1.45016H83.3167C82.9087 1.45016 82.6767 1.44216 82.4047 1.42616C82.4527 1.77816 82.4687 2.00216 82.4687 2.37816V6.65816ZM83.2127 6.94616V2.12216H84.6927C85.3647 2.12216 85.8367 2.29016 86.1887 2.65016C86.5967 3.06616 86.7967 3.67416 86.7967 4.49016C86.7967 5.29816 86.5727 5.96216 86.1487 6.39416C85.7887 6.77016 85.3087 6.94616 84.6687 6.94616H83.2127Z" fill="white"/>
<path d="M96.3206 3.05016C96.1286 2.53816 95.9766 2.28216 95.6726 1.98616C95.2166 1.54616 94.6086 1.33016 93.8406 1.33016C93.0726 1.33016 92.4566 1.56216 91.9846 2.01816C91.3766 2.61016 91.0406 3.49816 91.0406 4.54616C91.0406 5.55416 91.3526 6.43416 91.9126 7.00216C92.3766 7.48216 93.0406 7.73016 93.8326 7.73016C94.7366 7.73016 95.4886 7.40216 95.9366 6.81816C96.1446 6.54616 96.2566 6.29016 96.4006 5.79416L95.6006 5.62616C95.5286 5.98616 95.4566 6.17816 95.2886 6.41016C94.9846 6.82616 94.4726 7.05816 93.8566 7.05816C92.6166 7.05816 91.8246 6.07416 91.8246 4.52216C91.8246 2.97016 92.6006 2.00216 93.8566 2.00216C94.4086 2.00216 94.8726 2.19416 95.1766 2.55416C95.3446 2.75416 95.4326 2.91416 95.5446 3.25816L96.3206 3.05016Z" fill="white"/>
<path d="M99.9976 1.33016C98.2776 1.33016 97.1656 2.58616 97.1656 4.53016C97.1656 6.49016 98.2696 7.73816 99.9896 7.73816C101.718 7.73816 102.822 6.48216 102.822 4.53016C102.822 2.57016 101.726 1.33016 99.9976 1.33016ZM100.006 7.06616C98.7576 7.06616 97.9416 6.05816 97.9416 4.53016C97.9416 2.99416 98.7496 2.00216 99.9976 2.00216C100.526 2.00216 100.998 2.18616 101.35 2.53816C101.798 2.98616 102.038 3.67416 102.038 4.53816C102.038 6.08216 101.246 7.06616 100.006 7.06616Z" fill="white"/>
<path d="M103.771 6.71416V7.61816H104.675V6.71416H103.771Z" fill="white"/>
<path d="M106.675 6.71416H105.763V7.61816H106.291C106.283 8.12216 106.219 8.24216 105.835 8.38616L106.075 8.69816C106.547 8.45816 106.675 8.23416 106.675 7.61816V6.71416Z" fill="white"/>
<path d="M111.075 7.61816C111.563 7.61816 111.795 7.62616 112.067 7.66616V6.88216C111.747 6.92216 111.515 6.93816 111.075 6.93816H108.643V2.45816C108.643 1.97816 108.659 1.76216 108.707 1.45016H107.819C107.867 1.73816 107.883 2.00216 107.883 2.46616V6.65816C107.883 7.07416 107.867 7.34616 107.819 7.63416C108.115 7.61816 108.323 7.61816 108.739 7.61816H111.075Z" fill="white"/>
<path d="M114.352 2.12216H115.52C116.008 2.12216 116.264 2.13816 116.536 2.17816V1.39416C116.272 1.43416 116.032 1.45016 115.52 1.45016H112.392C111.952 1.45016 111.744 1.43416 111.432 1.39416V2.17816C111.696 2.13816 111.976 2.12216 112.4 2.12216H113.6V6.67416C113.6 7.07416 113.576 7.37816 113.536 7.61816H114.416C114.368 7.32216 114.352 7.07416 114.352 6.67416V2.12216Z" fill="white"/>
<path d="M117.305 6.65816C117.305 7.08216 117.289 7.32216 117.241 7.63416C117.529 7.61816 117.729 7.61816 118.153 7.61816H119.537C120.377 7.61816 121.041 7.37816 121.529 6.90616C122.105 6.34616 122.409 5.51416 122.409 4.47416C122.409 3.48216 122.129 2.69016 121.577 2.16216C121.097 1.68216 120.417 1.45016 119.529 1.45016H118.153C117.745 1.45016 117.513 1.44216 117.241 1.42616C117.289 1.77816 117.305 2.00216 117.305 2.37816V6.65816ZM118.049 6.94616V2.12216H119.529C120.201 2.12216 120.673 2.29016 121.025 2.65016C121.433 3.06616 121.633 3.67416 121.633 4.49016C121.633 5.29816 121.409 5.96216 120.985 6.39416C120.625 6.77016 120.145 6.94616 119.505 6.94616H118.049Z" fill="white"/>
<path d="M123.364 6.71416V7.61816H124.268V6.71416H123.364Z" fill="white"/>
<path d="M133.509 7.61816C133.389 7.41016 133.285 7.17816 133.085 6.69016L131.293 2.21016C131.101 1.73016 131.061 1.61016 131.021 1.45016H130.045C130.005 1.64216 129.941 1.82616 129.789 2.21016L128.005 6.69016C127.813 7.17016 127.725 7.36216 127.581 7.61816H128.549C128.605 7.33016 128.669 7.12216 128.797 6.79416L129.181 5.80216H131.909L132.301 6.79416C132.389 7.03416 132.485 7.34616 132.541 7.61816H133.509ZM131.685 5.14616H129.405L130.373 2.58616C130.389 2.54616 130.413 2.46616 130.453 2.35416C130.469 2.29816 130.501 2.20216 130.541 2.09016C130.685 2.51416 130.685 2.51416 130.709 2.58616L131.685 5.14616Z" fill="white"/>
<path d="M137.458 7.61816C137.946 7.61816 138.178 7.62616 138.45 7.66616V6.88216C138.13 6.92216 137.898 6.93816 137.458 6.93816H135.026V2.45816C135.026 1.97816 135.042 1.76216 135.09 1.45016H134.202C134.25 1.73816 134.266 2.00216 134.266 2.46616V6.65816C134.266 7.07416 134.25 7.34616 134.202 7.63416C134.498 7.61816 134.706 7.61816 135.122 7.61816H137.458Z" fill="white"/>
<path d="M142.364 7.61816C142.852 7.61816 143.084 7.62616 143.356 7.66616V6.88216C143.036 6.92216 142.804 6.93816 142.364 6.93816H139.932V2.45816C139.932 1.97816 139.948 1.76216 139.996 1.45016H139.108C139.156 1.73816 139.172 2.00216 139.172 2.46616V6.65816C139.172 7.07416 139.156 7.34616 139.108 7.63416C139.404 7.61816 139.612 7.61816 140.028 7.61816H142.364Z" fill="white"/>
<path d="M151.718 7.61816C151.606 7.42616 151.462 7.13016 151.35 6.85816C151.094 6.26616 150.902 5.85016 150.726 5.50616C150.438 4.94616 150.238 4.73016 149.918 4.62616C150.35 4.52216 150.55 4.42616 150.782 4.21016C151.086 3.92216 151.23 3.54616 151.23 3.03416C151.23 2.01016 150.582 1.45016 149.398 1.45016H147.598C147.206 1.45016 146.958 1.44216 146.678 1.42616C146.726 1.76216 146.742 2.01016 146.742 2.37816V6.67416C146.742 7.09816 146.726 7.31416 146.678 7.61816H147.55C147.502 7.33016 147.486 7.09816 147.486 6.67416V4.86616H148.87C149.502 4.86616 149.814 5.17816 150.27 6.27416C150.598 7.06616 150.702 7.36216 150.734 7.61816H151.718ZM147.486 4.21016V2.10616H149.342C150.07 2.10616 150.454 2.45016 150.454 3.10616C150.454 3.43416 150.358 3.69016 150.166 3.88216C149.95 4.09016 149.638 4.21016 149.302 4.21016H147.486Z" fill="white"/>
<path d="M152.584 1.45016C152.632 1.74616 152.648 1.95416 152.648 2.38616V6.68216C152.648 7.10616 152.632 7.31416 152.584 7.61816H153.472C153.424 7.33816 153.408 7.06616 153.408 6.68216V2.38616C153.408 2.01016 153.424 1.73816 153.472 1.45016H152.584Z" fill="white"/>
<path d="M158.894 5.10616V6.62616C158.438 6.92216 157.95 7.05816 157.342 7.05816C156.726 7.05816 156.238 6.86616 155.894 6.48216C155.478 6.02616 155.254 5.33816 155.254 4.49816C155.254 2.95416 156.03 1.98616 157.27 1.98616C158.142 1.98616 158.63 2.31416 158.91 3.08216L159.678 2.85816C159.502 2.41816 159.35 2.18616 159.086 1.93016C158.654 1.52216 158.054 1.31416 157.31 1.31416C155.582 1.31416 154.47 2.55416 154.47 4.49816C154.47 5.53816 154.79 6.43416 155.366 7.00216C155.854 7.47416 156.494 7.70616 157.358 7.70616C158.238 7.70616 158.83 7.53816 159.67 7.03416C159.622 6.69816 159.614 6.50616 159.614 6.10616V5.34616C159.614 4.96216 159.622 4.77016 159.67 4.41016C159.438 4.43416 159.214 4.44216 158.79 4.44216H158.51C158.046 4.44216 157.846 4.43416 157.614 4.39416V5.15416C157.83 5.11416 158.022 5.10616 158.438 5.10616H158.894Z" fill="white"/>
<path d="M165.036 1.45016C165.084 1.73016 165.1 1.98616 165.1 2.38616V4.03416H161.588V2.37016C161.588 1.97816 161.604 1.75416 161.652 1.45016H160.78C160.828 1.74616 160.844 1.97016 160.844 2.38616V6.68216C160.844 7.09816 160.828 7.34616 160.78 7.61816H161.652C161.604 7.32216 161.588 7.09816 161.588 6.68216V4.71416H165.1V6.68216C165.1 7.09016 165.084 7.32216 165.036 7.61816H165.908C165.86 7.30616 165.844 7.09816 165.844 6.68216V2.37016C165.844 1.97016 165.86 1.76216 165.908 1.45016H165.036Z" fill="white"/>
<path d="M169.54 2.12216H170.708C171.196 2.12216 171.452 2.13816 171.724 2.17816V1.39416C171.46 1.43416 171.22 1.45016 170.708 1.45016H167.58C167.14 1.45016 166.932 1.43416 166.62 1.39416V2.17816C166.884 2.13816 167.164 2.12216 167.588 2.12216H168.788V6.67416C168.788 7.07416 168.764 7.37816 168.724 7.61816H169.604C169.556 7.32216 169.54 7.07416 169.54 6.67416V2.12216Z" fill="white"/>
<path d="M172.244 5.85016C172.324 6.41016 172.42 6.67416 172.652 6.97016C173.028 7.45816 173.716 7.72216 174.62 7.72216C176.028 7.72216 176.844 7.05016 176.844 5.89016C176.844 5.36216 176.668 4.97016 176.284 4.67416C176.012 4.45016 175.612 4.29016 174.996 4.16216C174.092 3.97016 174.06 3.95416 173.852 3.87416C173.42 3.69816 173.204 3.41816 173.204 3.01816C173.204 2.41016 173.748 1.99416 174.54 1.99416C175.036 1.99416 175.428 2.14616 175.676 2.43416C175.82 2.61016 175.884 2.76216 175.94 3.06616L176.748 2.96216C176.66 2.55416 176.572 2.33816 176.388 2.09816C176.02 1.60216 175.38 1.33816 174.556 1.33816C173.268 1.33816 172.436 2.01016 172.436 3.04216C172.436 3.60216 172.676 4.02616 173.148 4.31416C173.428 4.49016 173.748 4.60216 174.268 4.72216C175.284 4.94616 175.356 4.96216 175.612 5.10616C175.9 5.26616 176.06 5.55416 176.06 5.93016C176.06 6.63416 175.508 7.05816 174.604 7.05816C174.028 7.05816 173.564 6.86616 173.308 6.53016C173.156 6.31416 173.092 6.13816 173.068 5.76216L172.244 5.85016Z" fill="white"/>
<path d="M185.585 7.61816C185.473 7.42616 185.329 7.13016 185.217 6.85816C184.961 6.26616 184.769 5.85016 184.593 5.50616C184.305 4.94616 184.105 4.73016 183.785 4.62616C184.217 4.52216 184.417 4.42616 184.649 4.21016C184.953 3.92216 185.097 3.54616 185.097 3.03416C185.097 2.01016 184.449 1.45016 183.265 1.45016H181.465C181.073 1.45016 180.825 1.44216 180.545 1.42616C180.593 1.76216 180.609 2.01016 180.609 2.37816V6.67416C180.609 7.09816 180.593 7.31416 180.545 7.61816H181.417C181.369 7.33016 181.353 7.09816 181.353 6.67416V4.86616H182.737C183.369 4.86616 183.681 5.17816 184.137 6.27416C184.465 7.06616 184.569 7.36216 184.601 7.61816H185.585ZM181.353 4.21016V2.10616H183.209C183.937 2.10616 184.321 2.45016 184.321 3.10616C184.321 3.43416 184.225 3.69016 184.033 3.88216C183.817 4.09016 183.505 4.21016 183.169 4.21016H181.353Z" fill="white"/>
<path d="M190.692 6.89016C190.388 6.93016 190.164 6.94616 189.764 6.94616H187.268V4.71416H189.324C189.764 4.71416 189.98 4.73016 190.268 4.77016V3.99416C189.956 4.03416 189.7 4.05016 189.324 4.05016H187.268V2.12216H189.684C190.108 2.12216 190.348 2.13816 190.62 2.17816V1.39416C190.356 1.43416 190.06 1.45016 189.684 1.45016H187.364C186.972 1.45016 186.724 1.44216 186.452 1.42616C186.5 1.79416 186.516 2.01016 186.516 2.37816V6.65816C186.516 7.08216 186.5 7.33816 186.452 7.63416C186.748 7.61816 186.94 7.61816 187.364 7.61816H189.764C190.204 7.61816 190.42 7.62616 190.692 7.66616V6.89016Z" fill="white"/>
<path d="M191.51 5.85016C191.59 6.41016 191.686 6.67416 191.918 6.97016C192.294 7.45816 192.982 7.72216 193.886 7.72216C195.294 7.72216 196.11 7.05016 196.11 5.89016C196.11 5.36216 195.934 4.97016 195.55 4.67416C195.278 4.45016 194.878 4.29016 194.262 4.16216C193.358 3.97016 193.326 3.95416 193.118 3.87416C192.686 3.69816 192.47 3.41816 192.47 3.01816C192.47 2.41016 193.014 1.99416 193.806 1.99416C194.302 1.99416 194.694 2.14616 194.942 2.43416C195.086 2.61016 195.15 2.76216 195.206 3.06616L196.014 2.96216C195.926 2.55416 195.838 2.33816 195.654 2.09816C195.286 1.60216 194.646 1.33816 193.822 1.33816C192.534 1.33816 191.702 2.01016 191.702 3.04216C191.702 3.60216 191.942 4.02616 192.414 4.31416C192.694 4.49016 193.014 4.60216 193.534 4.72216C194.55 4.94616 194.622 4.96216 194.878 5.10616C195.166 5.26616 195.326 5.55416 195.326 5.93016C195.326 6.63416 194.774 7.05816 193.87 7.05816C193.294 7.05816 192.83 6.86616 192.574 6.53016C192.422 6.31416 192.358 6.13816 192.334 5.76216L191.51 5.85016Z" fill="white"/>
<path d="M201.387 6.89016C201.083 6.93016 200.859 6.94616 200.459 6.94616H197.963V4.71416H200.019C200.459 4.71416 200.675 4.73016 200.963 4.77016V3.99416C200.651 4.03416 200.395 4.05016 200.019 4.05016H197.963V2.12216H200.379C200.803 2.12216 201.043 2.13816 201.315 2.17816V1.39416C201.051 1.43416 200.755 1.45016 200.379 1.45016H198.059C197.667 1.45016 197.419 1.44216 197.147 1.42616C197.195 1.79416 197.211 2.01016 197.211 2.37816V6.65816C197.211 7.08216 197.195 7.33816 197.147 7.63416C197.443 7.61816 197.635 7.61816 198.059 7.61816H200.459C200.899 7.61816 201.115 7.62616 201.387 7.66616V6.89016Z" fill="white"/>
<path d="M207.429 7.61816C207.317 7.42616 207.173 7.13016 207.061 6.85816C206.805 6.26616 206.613 5.85016 206.437 5.50616C206.149 4.94616 205.949 4.73016 205.629 4.62616C206.061 4.52216 206.261 4.42616 206.493 4.21016C206.797 3.92216 206.941 3.54616 206.941 3.03416C206.941 2.01016 206.293 1.45016 205.109 1.45016H203.309C202.917 1.45016 202.669 1.44216 202.389 1.42616C202.437 1.76216 202.453 2.01016 202.453 2.37816V6.67416C202.453 7.09816 202.437 7.31416 202.389 7.61816H203.261C203.213 7.33016 203.197 7.09816 203.197 6.67416V4.86616H204.581C205.213 4.86616 205.525 5.17816 205.981 6.27416C206.309 7.06616 206.413 7.36216 206.445 7.61816H207.429ZM203.197 4.21016V2.10616H205.053C205.781 2.10616 206.165 2.45016 206.165 3.10616C206.165 3.43416 206.069 3.69016 205.877 3.88216C205.661 4.09016 205.349 4.21016 205.013 4.21016H203.197Z" fill="white"/>
<path d="M208.991 2.27416C208.887 1.98616 208.815 1.70616 208.767 1.45016H207.799C207.895 1.61816 208.031 1.93016 208.207 2.38616L209.919 6.85016C210.071 7.25816 210.135 7.44216 210.175 7.61816H211.119C211.159 7.44216 211.231 7.21016 211.367 6.85016L213.079 2.38616C213.279 1.85816 213.367 1.65816 213.487 1.45016H212.519C212.487 1.67416 212.431 1.88216 212.287 2.27416L210.839 6.33016C210.775 6.49816 210.743 6.59416 210.647 6.90616C210.559 6.61816 210.495 6.42616 210.463 6.33016L208.991 2.27416Z" fill="white"/>
<path d="M218.426 6.89016C218.122 6.93016 217.898 6.94616 217.498 6.94616H215.002V4.71416H217.058C217.498 4.71416 217.714 4.73016 218.002 4.77016V3.99416C217.69 4.03416 217.434 4.05016 217.058 4.05016H215.002V2.12216H217.418C217.842 2.12216 218.082 2.13816 218.354 2.17816V1.39416C218.09 1.43416 217.794 1.45016 217.418 1.45016H215.098C214.706 1.45016 214.458 1.44216 214.186 1.42616C214.234 1.79416 214.25 2.01016 214.25 2.37816V6.65816C214.25 7.08216 214.234 7.33816 214.186 7.63416C214.482 7.61816 214.674 7.61816 215.098 7.61816H217.498C217.938 7.61816 218.154 7.62616 218.426 7.66616V6.89016Z" fill="white"/>
<path d="M219.492 6.65816C219.492 7.08216 219.476 7.32216 219.428 7.63416C219.716 7.61816 219.916 7.61816 220.34 7.61816H221.724C222.564 7.61816 223.228 7.37816 223.716 6.90616C224.292 6.34616 224.596 5.51416 224.596 4.47416C224.596 3.48216 224.316 2.69016 223.764 2.16216C223.284 1.68216 222.604 1.45016 221.716 1.45016H220.34C219.932 1.45016 219.7 1.44216 219.428 1.42616C219.476 1.77816 219.492 2.00216 219.492 2.37816V6.65816ZM220.236 6.94616V2.12216H221.716C222.388 2.12216 222.86 2.29016 223.212 2.65016C223.62 3.06616 223.82 3.67416 223.82 4.49016C223.82 5.29816 223.596 5.96216 223.172 6.39416C222.812 6.77016 222.332 6.94616 221.692 6.94616H220.236Z" fill="white"/>
<path d="M225.552 6.71416V7.61816H226.456V6.71416H225.552Z" fill="white"/>
<path d="M55.8332 8.1849C57.8621 8.1849 59.4998 6.54712 59.4998 4.51823C59.4998 2.48934 57.8621 0.851562 55.8332 0.851562C53.8043 0.851562 52.1665 2.48934 52.1665 4.51823C52.1665 6.54712 53.8043 8.1849 55.8332 8.1849ZM52.468 4.51823C52.468 2.66045 53.9754 1.15304 55.8332 1.15304C57.6909 1.15304 59.1984 2.66045 59.1984 4.51823C59.1984 6.37601 57.6909 7.88342 55.8332 7.88342C53.9754 7.88342 52.468 6.37601 52.468 4.51823Z" fill="white"/>
<path d="M56.0184 6.69575C56.5706 6.69575 57.0972 6.51337 57.5049 6.19237L57.1737 5.74735C56.8849 5.97351 56.5111 6.1413 56.0864 6.1413C55.2369 6.1413 54.6593 5.53579 54.6593 4.62386C54.6593 3.71194 55.2709 3.09184 56.1034 3.09184C56.4771 3.09184 56.7574 3.23774 57.0293 3.44931L57.4285 3.00429C57.0972 2.75625 56.681 2.53739 56.0779 2.53739C54.8971 2.53739 53.8523 3.3034 53.8523 4.62386C53.8523 5.93703 54.7952 6.69575 56.0184 6.69575Z" fill="white"/>
</svg>
