<svg width="322" height="106" viewBox="0 0 322 106" fill="none" xmlns="http://www.w3.org/2000/svg">
<g filter="url(#filter0_d_647_2987)">
<rect x="9.5" y="5.5" width="303" height="87" rx="43.5" fill="url(#paint0_linear_647_2987)" stroke="white" stroke-width="3"/>
<path d="M43.2686 31.012L43.2546 30.2C43.2406 29.724 43.2686 29.108 43.3386 28.632H40.9446C41.0286 29.178 41.0706 29.752 41.0986 30.2L41.1406 31.012H36.7726C36.2686 31.012 35.4706 30.956 35.0786 30.9V33.14C35.5966 33.112 36.2966 33.084 36.8286 33.084H40.1746C39.0546 34.624 36.8426 36.388 34.1966 37.634L35.7506 39.398C37.7946 38.32 39.9786 36.542 41.2386 34.946C41.2526 36.122 41.2526 37.186 41.2526 38.012C41.2526 38.418 41.1126 38.6 40.7906 38.6C40.3426 38.6 39.6006 38.544 38.9846 38.446L39.1806 40.644C40.0346 40.7 40.7906 40.728 41.7146 40.728C42.9046 40.728 43.4646 40.14 43.4506 39.146C43.4226 37.186 43.3666 35.086 43.3246 33.084H44.8786C45.2706 33.084 45.8446 33.098 46.3486 33.112V30.886C45.9846 30.942 45.2566 31.012 44.7526 31.012H43.2686ZM50.9126 29.136L49.3026 30.858C50.3106 31.572 52.0746 33.112 52.8166 33.924L54.5526 32.146C53.7126 31.25 51.8786 29.794 50.9126 29.136ZM48.8406 38.432L50.2826 40.672C52.0466 40.392 53.8666 39.664 55.2946 38.824C57.6326 37.452 59.6206 35.506 60.7406 33.518L59.4246 31.124C58.4866 33.098 56.5966 35.268 54.0766 36.724C52.7046 37.522 50.8986 38.152 48.8406 38.432ZM72.6546 32.426C72.4306 32.524 72.0106 32.594 71.4786 32.594H64.8146C64.3386 32.594 63.6806 32.552 63.0366 32.496V34.68C63.6666 34.624 64.4646 34.61 64.8146 34.61H71.1846C70.9466 35.254 70.5686 35.954 69.8826 36.64C68.8746 37.648 67.2506 38.572 65.0666 39.034L66.7606 40.952C68.5526 40.434 70.3726 39.412 71.7586 37.858C72.7946 36.696 73.3826 35.38 73.8446 34.036C73.9006 33.868 74.0406 33.574 74.1526 33.364L72.6546 32.426ZM64.3526 31.264C64.7726 31.222 65.4446 31.208 65.9206 31.208H71.1986C71.7306 31.208 72.4866 31.236 72.8786 31.264V29.08C72.4726 29.136 71.6746 29.164 71.2266 29.164H65.9206C65.4306 29.164 64.7446 29.136 64.3526 29.08V31.264ZM84.0506 33.112C85.3946 32.244 86.6126 31.208 87.7326 30.116L85.9126 28.478C85.1146 29.542 83.6726 30.788 82.2586 31.67C80.6906 32.65 78.3386 33.672 75.8326 34.19L77.0366 36.248C78.5626 35.842 80.2006 35.184 81.6146 34.484V38.698C81.6146 39.37 81.5586 40.35 81.5026 40.728H84.1906C84.0786 40.336 84.0506 39.37 84.0506 38.698V33.112ZM92.4926 29.136L90.8826 30.858C91.8906 31.572 93.6546 33.112 94.3966 33.924L96.1326 32.146C95.2926 31.25 93.4586 29.794 92.4926 29.136ZM90.4206 38.432L91.8626 40.672C93.6266 40.392 95.4466 39.664 96.8746 38.824C99.2126 37.452 101.201 35.506 102.321 33.518L101.005 31.124C100.067 33.098 98.1766 35.268 95.6566 36.724C94.2846 37.522 92.4786 38.152 90.4206 38.432ZM107.585 29.948V30.424H105.877V29.948H107.585ZM105.877 32.23V31.712H107.585V32.23H105.877ZM109.489 33.658V28.534H103.889V41.33H105.877V33.658H109.489ZM109.349 36.668V35.87H110.273V36.668H109.349ZM113.409 38.306V36.668H112.051V35.87H113.213V34.288H106.521V35.87H107.627V36.668H106.339V38.306H107.543C107.389 38.964 107.011 39.748 106.255 40.21C106.661 40.476 107.263 41.008 107.543 41.358C108.649 40.588 109.139 39.272 109.293 38.306H110.273V41.078H112.051V38.306H113.409ZM112.149 32.272V31.712H113.913V32.272H112.149ZM113.913 29.948V30.424H112.149V29.948H113.913ZM115.915 28.534H110.217V33.7H113.913V39.02C113.913 39.216 113.843 39.3 113.633 39.3C113.423 39.3 112.751 39.3 112.219 39.272C112.485 39.79 112.751 40.728 112.807 41.274C113.885 41.288 114.627 41.232 115.201 40.896C115.761 40.56 115.915 40.014 115.915 39.048V28.534ZM124.245 38.614H125.603V39.3H124.245V38.614ZM123.559 31.684H126.107C126.037 32.048 125.925 32.454 125.799 32.86H124.385C124.525 32.58 124.651 32.314 124.763 32.034L123.559 31.684ZM125.603 35.058H124.245V34.414H125.603V35.058ZM125.603 37.172H124.245V36.5H125.603V37.172ZM130.349 39.3H127.535V38.614H129.803V37.172H127.535V36.5H129.803V35.058H127.535V34.414H130.153V32.86H127.787L128.221 32.034L126.625 31.684H130.097V28.464H128.151V29.99H126.877V28.114H124.861V29.99H123.699V28.464H121.851V31.684H122.747C122.229 32.874 121.403 34.036 120.479 34.82V31.502C120.969 30.578 121.403 29.612 121.753 28.688L119.835 28.086C119.163 30.018 118.001 31.95 116.797 33.168C117.133 33.672 117.679 34.806 117.861 35.31C118.085 35.058 118.323 34.792 118.547 34.512V41.316H120.479V35.24C120.913 35.604 121.459 36.15 121.739 36.458C121.921 36.29 122.117 36.094 122.299 35.898V41.302H124.245V40.854H130.349V39.3ZM130.797 42.562H132.421L135.501 28.632H133.877L130.797 42.562ZM141.153 32.426C141.237 32.93 141.265 33.336 141.265 33.826C141.265 36.108 140.915 37.298 139.361 38.474C138.773 38.922 138.255 39.16 137.765 39.328L139.739 40.938C143.687 38.74 143.617 35.716 143.617 32.426H141.153ZM148.041 29.276C147.747 29.36 146.823 29.416 146.361 29.416H139.095C138.479 29.416 137.891 29.346 137.317 29.262V31.6C138.045 31.53 138.479 31.488 139.095 31.488H146.011C145.703 32.076 144.737 33.14 143.701 33.798L145.451 35.198C146.711 34.288 148.041 32.538 148.755 31.362C148.895 31.138 149.217 30.732 149.385 30.522L148.041 29.276ZM162.671 30.648C162.363 30.032 161.789 29.192 161.355 28.59L159.969 29.234C160.515 29.976 160.781 30.368 161.271 31.334L162.671 30.648ZM160.711 31.516C160.403 30.886 159.857 30.018 159.437 29.388L158.037 29.976C158.583 30.746 158.821 31.18 159.269 32.146L160.711 31.516ZM155.825 30.816C155.825 30.144 155.909 29.528 155.965 28.996H153.319C153.431 29.528 153.487 30.256 153.487 30.816V38.81C153.487 39.384 153.417 40.322 153.319 40.924H155.979C155.909 40.294 155.825 39.188 155.825 38.81V35.212C157.309 35.744 159.227 36.486 160.641 37.214L161.607 34.848C160.431 34.274 157.715 33.28 155.825 32.734V30.816ZM174.585 28.688L173.269 29.22C173.647 29.766 174.053 30.592 174.347 31.166L175.677 30.606C175.425 30.116 174.935 29.206 174.585 28.688ZM176.307 28.016L174.991 28.548C175.369 29.08 175.817 29.906 176.097 30.48L177.413 29.92C177.175 29.444 176.671 28.548 176.307 28.016ZM166.045 35.562C165.555 36.836 164.715 38.362 163.847 39.496L166.241 40.504C166.941 39.496 167.809 37.816 168.299 36.416C168.733 35.184 169.251 33.35 169.447 32.3C169.503 31.978 169.699 31.138 169.825 30.69L167.347 30.172C167.179 32.048 166.675 33.938 166.045 35.562ZM172.961 35.408C173.507 36.934 173.941 38.628 174.347 40.42L176.881 39.594C176.489 38.138 175.747 35.856 175.285 34.652C174.795 33.378 173.801 31.096 173.199 29.976L170.931 30.704C171.519 31.782 172.443 33.924 172.961 35.408ZM186.317 33.112C187.661 32.244 188.879 31.208 189.999 30.116L188.179 28.478C187.381 29.542 185.939 30.788 184.525 31.67C182.957 32.65 180.605 33.672 178.099 34.19L179.303 36.248C180.829 35.842 182.467 35.184 183.881 34.484V38.698C183.881 39.37 183.825 40.35 183.769 40.728H186.457C186.345 40.336 186.317 39.37 186.317 38.698V33.112ZM205.063 30.424C204.909 29.906 204.615 29.108 204.349 28.534L203.243 28.884C203.523 29.458 203.761 30.172 203.957 30.774L205.063 30.424ZM201.745 31.614V30.298C201.745 29.948 201.759 29.654 201.787 29.388C202.067 29.962 202.249 30.662 202.445 31.25L203.565 30.886C203.425 30.354 203.145 29.57 202.879 28.996L201.801 29.332L201.843 28.912H199.435C199.491 29.262 199.519 29.724 199.519 30.298V31.614H196.579V30.466C196.579 29.864 196.635 29.388 196.677 29.052H194.269C194.311 29.388 194.367 29.878 194.367 30.452V31.614H193.359C192.603 31.614 192.099 31.516 191.777 31.46V33.756C192.183 33.728 192.603 33.7 193.359 33.7H194.367V35.394C194.367 36.08 194.325 36.626 194.283 36.976H196.649C196.621 36.626 196.579 36.08 196.579 35.394V33.7H199.519V34.204C199.519 37.368 198.385 38.586 195.585 39.51L197.405 41.218C200.891 39.692 201.745 37.466 201.745 34.148V33.7H202.501C203.299 33.7 203.789 33.7 204.181 33.742V31.502C203.691 31.586 203.299 31.614 202.487 31.614H201.745ZM206.337 35.954C206.911 35.912 207.961 35.87 208.759 35.87H216.193C216.767 35.87 217.551 35.94 217.915 35.954V33.28C217.509 33.308 216.823 33.378 216.193 33.378H208.759C208.073 33.378 206.897 33.322 206.337 33.28V35.954ZM229.325 30.004C228.919 30.34 228.471 30.606 227.883 30.942C227.281 31.292 226.231 31.838 225.209 32.426C224.663 31.39 224.047 30.13 223.543 28.73L221.429 29.584C222.045 31.04 222.689 32.454 223.333 33.644C222.059 34.61 221.079 35.744 221.079 37.326C221.079 39.888 223.277 40.658 226.133 40.658C227.981 40.658 229.367 40.518 230.627 40.308L230.655 37.886C229.339 38.18 227.449 38.418 226.077 38.418C224.299 38.418 223.417 37.984 223.417 37.074C223.417 36.164 224.187 35.422 225.265 34.722C226.483 33.938 228.107 33.196 228.933 32.79C229.493 32.51 229.997 32.244 230.487 31.95L229.325 30.004ZM235.695 28.058C235.093 30.004 234.057 31.95 232.937 33.196C233.245 33.728 233.735 34.932 233.875 35.436C234.113 35.17 234.337 34.89 234.561 34.582V41.344H236.493V31.278C236.899 30.41 237.263 29.5 237.557 28.632L235.695 28.058ZM242.233 36.878H241.337V35.814H242.233V36.878ZM243.969 33.406V31.964H242.541V30.62H240.987V31.964H239.671V33.406H240.987V34.442H239.909V38.236H243.745V34.442H242.541V33.406H243.969ZM239.433 38.754V30.424H244.193V38.754H239.433ZM237.585 28.674V41.316H239.433V40.504H244.193V41.19H246.125V28.674H237.585ZM249.639 30.466H251.753V31.95H249.639V30.466ZM251.053 34.694C251.081 34.372 251.109 34.064 251.123 33.742H253.713V28.688H247.805V33.742H249.135C249.037 35.968 248.799 38.32 246.965 39.832C247.455 40.168 248.029 40.826 248.323 41.33C249.807 40.056 250.479 38.32 250.829 36.458H251.935C251.851 38.376 251.739 39.188 251.557 39.412C251.431 39.566 251.291 39.594 251.095 39.594C250.843 39.594 250.353 39.594 249.835 39.538C250.129 40.014 250.339 40.756 250.367 41.288C251.025 41.302 251.655 41.288 252.047 41.218C252.509 41.148 252.859 41.008 253.181 40.602C253.573 40.112 253.713 38.726 253.839 35.408C253.853 35.184 253.867 34.694 253.867 34.694H251.053ZM256.541 29.752H254.567V37.76H256.541V29.752ZM257.801 28.324V38.922C257.801 39.188 257.689 39.272 257.423 39.272C257.115 39.272 256.191 39.272 255.309 39.23C255.603 39.804 255.925 40.756 256.009 41.344C257.297 41.344 258.305 41.274 258.963 40.952C259.607 40.616 259.817 40.07 259.817 38.936V28.324H257.801ZM263.541 31.768V30.942H271.507V31.768H268.511V31.18H266.453V31.768H263.541ZM273.761 37.998V36.248H268.441C268.469 36.038 268.497 35.828 268.497 35.618H272.123V33.994H268.511V33.392H272.459V32.356H273.621V29.178H268.609V28.058H266.509V29.178H261.525V32.356H262.813V33.392H266.453V33.994H263.037V35.618H266.439C266.425 35.828 266.411 36.038 266.355 36.248H261.469V37.998H265.333C264.549 38.684 263.247 39.272 261.133 39.692C261.581 40.112 262.169 40.896 262.393 41.33C265.053 40.658 266.621 39.678 267.503 38.516C268.609 40.098 270.191 40.98 272.781 41.372C273.033 40.826 273.551 40.014 273.971 39.594C271.913 39.412 270.457 38.894 269.477 37.998H273.761ZM280.509 35.128L280.523 33.966V33.224H278.045C278.059 32.804 278.073 32.384 278.087 31.964H280.187L280.103 32.048C280.467 32.328 281.069 32.902 281.433 33.294V34.694L280.509 35.128ZM283.967 39.636C283.309 39.636 283.225 39.566 283.225 38.95V35.87L283.659 35.66V38.656H285.339V34.89L285.871 34.638C285.871 35.744 285.871 36.29 285.857 36.388C285.843 36.528 285.801 36.556 285.703 36.556C285.619 36.556 285.493 36.556 285.381 36.542C285.563 36.906 285.689 37.55 285.731 37.998C286.123 37.998 286.599 37.984 286.949 37.788C287.341 37.592 287.523 37.256 287.537 36.71C287.565 36.262 287.565 35.03 287.565 33.042L287.635 32.776L286.389 32.356L286.081 32.552L285.969 32.622L285.339 32.916V31.782H283.659V33.686L283.225 33.882V32.748H282.245C282.511 32.384 282.763 31.978 282.987 31.544H287.845V29.71H283.757C283.897 29.29 284.023 28.856 284.135 28.422L282.133 28.016C281.895 29.15 281.475 30.242 280.901 31.096V30.088H278.857V28.044H276.911V30.088H274.909V31.964H276.169C276.127 35.086 276.029 37.97 274.685 39.874C275.189 40.196 275.791 40.826 276.113 41.316C277.275 39.706 277.737 37.508 277.947 35.058H278.689C278.647 38.026 278.591 39.104 278.437 39.37C278.325 39.552 278.213 39.594 278.045 39.594C277.849 39.594 277.541 39.594 277.191 39.552C277.457 40.042 277.639 40.798 277.667 41.344C278.241 41.344 278.745 41.344 279.095 41.246C279.501 41.162 279.781 41.008 280.061 40.574C280.369 40.126 280.439 38.81 280.495 35.66L281.013 36.892L281.433 36.696V38.95C281.433 40.784 281.909 41.316 283.743 41.316H285.969C287.425 41.316 287.943 40.756 288.153 38.922C287.649 38.81 286.921 38.516 286.529 38.236C286.445 39.412 286.333 39.636 285.801 39.636H283.967Z" fill="white"/>
<path d="M48.8668 58.424H47.6188V55.928H48.8668V58.424ZM48.8668 63.992H47.6188V61.52H48.8668V63.992ZM39.4828 61.52H40.6588V63.992H39.4828V61.52ZM44.7388 61.52V63.992H43.5388V61.52H44.7388ZM43.5388 58.424V55.928H44.7388V58.424H43.5388ZM39.4828 55.928H40.6588V58.424H39.4828V55.928ZM36.4108 58.424H33.2188V61.52H36.4108V63.992H33.6268V67.088H54.6988V63.992H52.0588V61.52H55.0588V58.424H52.0588V55.928H54.1948V52.88H40.1548C40.4428 52.424 40.6828 51.968 40.9228 51.488L37.4908 50.48C36.4828 52.616 34.5868 54.728 32.5708 55.976C33.3868 56.504 34.7788 57.608 35.4268 58.256C35.7628 58.016 36.0748 57.728 36.4108 57.416V58.424ZM36.3148 73.304C37.4188 71.984 38.4028 69.992 38.9068 68.12L35.4988 67.304C34.9708 69.056 33.9388 70.952 32.9308 71.96L36.3148 73.304ZM39.8908 68.264C40.1548 69.8 40.3228 71.816 40.3228 73.016L43.7548 72.512C43.7308 71.312 43.4428 69.368 43.1308 67.88L39.8908 68.264ZM44.5948 68.36C45.0988 69.872 45.6028 71.84 45.7228 73.04L49.2268 72.368C49.0348 71.144 48.4588 69.248 47.8828 67.808L44.5948 68.36ZM49.2988 68.24C50.3068 69.824 51.5308 71.96 52.0108 73.28L55.6108 72.104C55.0108 70.736 53.6908 68.696 52.6588 67.208L49.2988 68.24ZM73.0348 54.44C72.2428 53.552 70.5148 52.352 69.1948 51.56L67.5148 53.912C68.8348 54.8 70.5148 56.12 71.2348 57.056L73.0348 54.44ZM66.5068 59.96C67.8748 60.824 69.6508 62.144 70.4428 63.056L72.1948 60.272C71.3308 59.384 69.5068 58.208 68.1388 57.464L66.5068 59.96ZM59.8108 57.56C59.7148 56.024 59.2828 53.672 58.6828 51.872L56.2828 52.496C56.8108 54.296 57.2188 56.696 57.2428 58.232L59.8108 57.56ZM79.2508 66.368L78.7468 63.128L76.4908 63.536V50.456H73.2268V64.112L66.4828 65.312C65.8588 64.568 63.8668 62.384 63.1468 61.784V61.688H66.4828V58.448H63.1468V57.536L65.2828 58.088C65.8588 56.648 66.5548 54.344 67.1788 52.328L64.2748 51.728C64.0588 53.408 63.5788 55.76 63.1468 57.344V50.624H59.9308V58.448H56.4268V61.688H58.8028C58.1068 63.632 57.0508 65.888 55.9468 67.232C56.4508 68.216 57.1948 69.8 57.4828 70.88C58.3948 69.488 59.2348 67.52 59.9308 65.456V73.208H63.1468V65.624C63.6748 66.536 64.1788 67.448 64.4908 68.144L66.4588 65.6L66.9388 68.6L73.2268 67.472V73.256H76.4908V66.872L79.2508 66.368ZM99.6988 54.848C99.2668 54.008 98.4268 52.448 97.8268 51.56L95.5708 52.472C96.2188 53.408 96.9148 54.824 97.4188 55.808L99.6988 54.848ZM91.5148 56C91.5628 55.376 91.5868 54.704 91.6108 54.032C91.6348 53.456 91.7068 52.352 91.7788 51.776H87.5068C87.6028 52.352 87.6988 53.576 87.6988 54.104C87.6988 54.752 87.6988 55.376 87.6748 56H84.6748C83.7628 56 82.3948 55.928 81.2908 55.808V59.6C82.3948 59.504 83.9308 59.48 84.6748 59.48H87.3868C86.9548 62.504 85.9468 65 83.8588 67.16C82.7548 68.312 81.4348 69.2 80.3068 69.824L83.6908 72.56C88.1308 69.368 90.3148 65.552 91.1788 59.48H95.8588C95.8588 62.096 95.5228 66.272 94.9468 67.592C94.7068 68.192 94.4428 68.48 93.6268 68.48C92.7148 68.48 91.4908 68.336 90.3628 68.12L90.8188 72.008C91.9468 72.104 93.3868 72.224 94.8748 72.224C96.6988 72.224 97.7068 71.48 98.2348 70.16C99.2428 67.64 99.5548 61.088 99.6508 58.328C99.6508 58.088 99.7468 57.392 99.8188 57.008L97.3468 55.808C96.6748 55.928 95.9548 56 95.3548 56H91.5148ZM98.5228 51.32C99.1708 52.232 99.9388 53.648 100.419 54.632L102.675 53.672C102.267 52.856 101.403 51.32 100.779 50.408L98.5228 51.32ZM117.939 59.192C120.243 57.704 122.331 55.928 124.251 54.056L121.131 51.248C119.763 53.072 117.291 55.208 114.867 56.72C112.179 58.4 108.147 60.152 103.851 61.04L105.915 64.568C108.531 63.872 111.339 62.744 113.763 61.544V68.768C113.763 69.92 113.667 71.6 113.571 72.248H118.179C117.987 71.576 117.939 69.92 117.939 68.768V59.192ZM145.994 54.368C145.562 53.528 144.722 51.968 144.122 51.08L141.866 51.992C142.37 52.712 142.898 53.72 143.33 54.584C142.754 54.704 142.034 54.776 141.41 54.776H137.426C137.786 54.152 138.338 53.216 138.866 52.472L134.666 51.176C134.402 52.112 133.826 53.36 133.394 54.032C132.122 56.048 130.034 59.168 125.786 61.784L128.93 64.208C131.186 62.648 133.49 60.344 135.242 58.064H141.41C141.122 59.264 140.258 60.968 139.25 62.456C137.81 61.616 136.346 60.824 135.17 60.2L132.698 62.984C133.826 63.632 135.266 64.52 136.73 65.48C134.858 67.352 132.314 69.2 128.09 70.52L131.474 73.448C135.194 72.008 137.882 69.968 139.994 67.712C140.858 68.336 141.65 68.936 142.226 69.44L144.866 66.008C144.266 65.576 143.474 65.048 142.586 64.472C144.122 62.24 145.178 59.936 145.778 58.256C146.042 57.536 146.402 56.816 146.714 56.288L144.578 54.968L145.994 54.368ZM144.818 50.84C145.466 51.752 146.234 53.168 146.714 54.152L148.97 53.192C148.562 52.376 147.698 50.84 147.074 49.928L144.818 50.84ZM154.73 52.376L151.97 55.328C153.698 56.552 156.722 59.192 157.994 60.584L160.97 57.536C159.53 56 156.386 53.504 154.73 52.376ZM151.178 68.312L153.65 72.152C156.674 71.672 159.794 70.424 162.242 68.984C166.25 66.632 169.658 63.296 171.578 59.888L169.322 55.784C167.714 59.168 164.474 62.888 160.154 65.384C157.802 66.752 154.706 67.832 151.178 68.312ZM189.901 52.856C189.349 53.048 188.221 53.216 187.021 53.216H179.005C178.309 53.216 176.773 53.144 175.933 53.024V57.152C176.605 57.104 177.925 56.96 179.005 56.96H186.469C185.965 58.496 184.669 60.608 183.109 62.384C180.973 64.76 177.181 67.712 173.293 69.128L176.317 72.272C179.461 70.76 182.605 68.336 185.125 65.72C187.285 67.808 189.325 70.112 190.861 72.296L194.197 69.392C192.877 67.76 189.997 64.712 187.669 62.696C189.229 60.536 190.501 58.136 191.293 56.36C191.557 55.76 192.061 54.92 192.277 54.608L189.901 52.856ZM210.685 67.424C210.661 66.368 210.613 64.76 210.589 63.464C211.837 62.912 212.989 62.456 213.901 62.12C214.813 61.76 216.301 61.208 217.141 60.968L215.725 57.656C214.717 58.136 213.733 58.592 212.701 59.048C211.861 59.432 211.093 59.744 210.133 60.2C209.509 59.096 208.357 58.52 206.965 58.52C206.293 58.52 205.093 58.616 204.613 58.76C204.925 58.28 205.237 57.704 205.525 57.08C208.069 56.984 210.973 56.768 213.205 56.48L213.229 53.144C211.237 53.504 208.957 53.696 206.821 53.816C207.085 52.928 207.253 52.184 207.349 51.656L203.557 51.344C203.533 51.944 203.413 52.856 203.149 53.936H202.213C200.941 53.936 199.117 53.84 197.941 53.648V56.984C199.189 57.104 200.917 57.152 201.901 57.152C200.749 59.336 199.069 61.28 196.813 63.272L199.885 65.576C200.701 64.496 201.373 63.632 202.093 62.888C202.909 62.096 204.373 61.304 205.597 61.304C206.053 61.304 206.533 61.424 206.893 61.784C204.253 63.176 201.421 65.168 201.421 68.264C201.421 71.432 204.229 72.44 208.141 72.44C210.493 72.44 213.541 72.224 215.005 72.032L215.125 68.312C213.037 68.768 210.325 69.056 208.213 69.056C205.981 69.056 205.237 68.648 205.237 67.64C205.237 66.68 205.885 65.912 207.373 65.048C207.349 65.936 207.301 66.824 207.253 67.424H210.685ZM232.597 63.968V62.072H237.205V63.968H232.597ZM224.461 63.968V62.072H228.949V63.968H224.461ZM228.949 57.032V58.88H224.461V57.032H228.949ZM237.205 57.032V58.88H232.597V57.032H237.205ZM232.597 53.696V50.48H228.949V53.696H220.981V68.528H224.461V67.304H228.949V73.28H232.597V67.304H237.205V68.384H240.853V53.696H232.597ZM255.325 56.576C254.653 61.016 252.901 64.472 249.637 66.368C250.429 66.968 251.797 68.336 252.301 69.008C254.653 67.376 256.381 65 257.557 62C258.589 64.904 260.269 67.328 262.981 68.984C263.605 68.144 264.877 66.872 265.693 66.296C260.581 63.752 259.357 57.92 259.117 51.368H252.061V54.656H256.141C256.189 55.352 256.261 56.048 256.357 56.72L255.325 56.576ZM249.781 54.608C248.965 53.504 247.213 52.016 245.845 51.032L243.253 53.12C244.621 54.2 246.301 55.808 246.997 56.912L249.781 54.608ZM249.229 59.768H243.349V62.984H245.821V67.448C244.813 68.168 243.709 68.84 242.725 69.392L244.405 73.04C245.701 72.008 246.709 71.144 247.693 70.28C249.277 72.128 251.173 72.728 254.029 72.848C257.029 72.992 261.805 72.944 264.853 72.776C265.021 71.744 265.573 70.064 265.957 69.224C262.501 69.536 257.029 69.608 254.101 69.488C251.749 69.392 250.117 68.792 249.229 67.304V59.768ZM288.877 58.136C287.821 56.888 285.205 54.44 283.669 53.504L281.245 55.904C282.637 56.912 284.917 59.168 286.285 60.8L288.877 58.136ZM270.637 63.68C270.637 62.528 271.285 61.76 272.101 61.76C272.677 61.76 273.061 62.216 273.061 63.008C273.061 64.232 272.677 65.072 271.765 65.072C271.189 65.072 270.637 64.568 270.637 63.68ZM282.637 63.152C282.805 64.352 282.829 65.288 282.829 66.224C282.829 67.256 282.445 68.096 281.221 68.48C280.285 68.768 278.917 68.912 277.789 68.912C275.341 68.912 275.125 68.384 275.125 67.52V66.896C275.941 65.888 276.349 64.448 276.349 62.864C276.349 61.832 276.109 60.968 275.605 60.296V57.488C276.901 57.344 278.317 57.152 279.661 56.84V53.384C278.269 53.768 276.925 54.032 275.605 54.2C275.629 52.88 275.749 52.136 275.869 51.44H271.861C272.029 52.184 272.125 52.904 272.125 54.464H271.573C270.493 54.464 268.957 54.32 267.685 54.152L267.901 57.512C269.557 57.656 270.829 57.704 271.837 57.704H272.125V58.904C269.509 59 267.637 61.016 267.637 63.992C267.637 67.184 269.461 68.528 271.405 68.528H271.573V68.696C271.573 70.28 271.549 72.392 277.525 72.392C279.157 72.392 281.725 72.224 282.829 71.864C285.901 70.88 286.429 69.368 286.573 67.28C286.645 66.272 286.621 65.744 286.621 64.352L282.637 63.152Z" fill="white"/>
</g>
<defs>
<filter id="filter0_d_647_2987" x="0" y="0" width="322" height="106" filterUnits="userSpaceOnUse" color-interpolation-filters="sRGB">
<feFlood flood-opacity="0" result="BackgroundImageFix"/>
<feColorMatrix in="SourceAlpha" type="matrix" values="0 0 0 0 0 0 0 0 0 0 0 0 0 0 0 0 0 0 127 0" result="hardAlpha"/>
<feOffset dy="4"/>
<feGaussianBlur stdDeviation="4"/>
<feComposite in2="hardAlpha" operator="out"/>
<feColorMatrix type="matrix" values="0 0 0 0 0 0 0 0 0 0 0 0 0 0 0 0 0 0 0.25 0"/>
<feBlend mode="normal" in2="BackgroundImageFix" result="effect1_dropShadow_647_2987"/>
<feBlend mode="normal" in="SourceGraphic" in2="effect1_dropShadow_647_2987" result="shape"/>
</filter>
<linearGradient id="paint0_linear_647_2987" x1="11" y1="49" x2="311" y2="49" gradientUnits="userSpaceOnUse">
<stop stop-color="#8C00FF"/>
<stop offset="0.3389" stop-color="#AA00AA"/>
<stop offset="0.6649" stop-color="#FF0078"/>
<stop offset="1" stop-color="#FFAA00"/>
</linearGradient>
</defs>
</svg>
