<svg width="76" height="26" viewBox="0 0 76 26" fill="none" xmlns="http://www.w3.org/2000/svg">
<rect x="0.5" width="75" height="26" rx="8" fill="#F88487"/>
<path d="M13.2267 19H21.4827V16.6H19.2907C18.7627 16.6 17.9467 16.68 17.3547 16.76C19.1787 14.92 20.9387 12.664 20.9387 10.616C20.9387 8.344 19.3387 6.872 17.0347 6.872C15.3387 6.872 14.2507 7.48 13.0827 8.712L14.6347 10.248C15.1947 9.64 15.8347 9.096 16.6507 9.096C17.5947 9.096 18.2027 9.688 18.2027 10.776C18.2027 12.504 16.2027 14.664 13.2267 17.368V19ZM27.3767 19.224C30.2567 19.224 31.9207 17.48 31.9207 15.496C31.9207 13.816 31.0407 12.824 29.5687 12.232L28.0807 11.64C27.0247 11.224 26.2727 10.968 26.2727 10.312C26.2727 9.672 26.8167 9.32 27.6967 9.32C28.6247 9.32 29.3607 9.64 30.1447 10.232L31.5687 8.44C30.5287 7.4 29.0727 6.872 27.6967 6.872C25.1687 6.872 23.3767 8.472 23.3767 10.472C23.3767 12.2 24.5447 13.24 25.7927 13.736L27.3127 14.376C28.3367 14.808 28.9927 15.032 28.9927 15.72C28.9927 16.36 28.4967 16.76 27.4407 16.76C26.4967 16.76 25.3927 16.264 24.5447 15.544L22.9287 17.512C24.1607 18.648 25.8247 19.224 27.3767 19.224ZM35.8284 19H38.6924V9.464H41.9244V7.096H32.6124V9.464H35.8284V19ZM43.7588 19H51.4868V16.6H46.6228V14.072H50.6068V11.672H46.6228V9.464H51.3108V7.096H43.7588V19ZM53.8369 19H56.7009V15.048H58.0929C60.6049 15.048 62.7969 13.8 62.7969 10.968C62.7969 8.024 60.6369 7.096 58.0129 7.096H53.8369V19ZM56.7009 12.792V9.352H57.8689C59.2449 9.352 60.0129 9.768 60.0129 10.968C60.0129 12.136 59.3409 12.792 57.9489 12.792H56.7009Z" fill="#FEF586"/>
</svg>
