<svg width="75" height="26" viewBox="0 0 75 26" fill="none" xmlns="http://www.w3.org/2000/svg">
<path d="M0 8C0 3.58172 3.58172 0 8 0H67C71.4183 0 75 3.58172 75 8V26H0V8Z" fill="#F88487"/>
<path d="M17.1267 19.224C20.0067 19.224 21.6707 17.48 21.6707 15.496C21.6707 13.816 20.7907 12.824 19.3187 12.232L17.8307 11.64C16.7747 11.224 16.0227 10.968 16.0227 10.312C16.0227 9.672 16.5667 9.32 17.4467 9.32C18.3747 9.32 19.1107 9.64 19.8947 10.232L21.3187 8.44C20.2787 7.4 18.8227 6.872 17.4467 6.872C14.9187 6.872 13.1267 8.472 13.1267 10.472C13.1267 12.2 14.2947 13.24 15.5427 13.736L17.0627 14.376C18.0867 14.808 18.7427 15.032 18.7427 15.72C18.7427 16.36 18.2467 16.76 17.1907 16.76C16.2467 16.76 15.1427 16.264 14.2947 15.544L12.6787 17.512C13.9107 18.648 15.5747 19.224 17.1267 19.224ZM25.5784 19H28.4424V9.464H31.6744V7.096H22.3624V9.464H25.5784V19ZM33.5088 19H41.2368V16.6H36.3728V14.072H40.3568V11.672H36.3728V9.464H41.0608V7.096H33.5088V19ZM43.5869 19H46.4509V15.048H47.8429C50.3549 15.048 52.5469 13.8 52.5469 10.968C52.5469 8.024 50.3869 7.096 47.7629 7.096H43.5869V19ZM46.4509 12.792V9.352H47.6189C48.9949 9.352 49.7629 9.768 49.7629 10.968C49.7629 12.136 49.0909 12.792 47.6989 12.792H46.4509ZM53.8673 19H62.1233V16.6H59.9313C59.4033 16.6 58.5873 16.68 57.9953 16.76C59.8193 14.92 61.5793 12.664 61.5793 10.616C61.5793 8.344 59.9793 6.872 57.6753 6.872C55.9793 6.872 54.8913 7.48 53.7233 8.712L55.2753 10.248C55.8353 9.64 56.4753 9.096 57.2913 9.096C58.2353 9.096 58.8433 9.688 58.8433 10.776C58.8433 12.504 56.8433 14.664 53.8673 17.368V19Z" fill="#FEF586"/>
</svg>
