<svg width="360" height="138" viewBox="0 0 360 138" fill="none" xmlns="http://www.w3.org/2000/svg">
<rect width="360" height="138" fill="white"/>
<path d="M85.724 29.964V28.508H92.374V29.964H85.724ZM92.374 25.526V26.968H85.724V25.526H92.374ZM92.374 22.544V23.986H85.724V22.544H92.374ZM89.35 20.948C89.574 20.444 89.798 19.898 90.008 19.338L87.992 19.114C87.922 19.674 87.768 20.346 87.614 20.948H84.03V32.204H85.724V31.504H92.374V32.19H94.152V20.948H89.35ZM103.98 19.954C104.75 21.424 105.8 22.964 106.906 24.252H99.346C100.452 22.992 101.432 21.452 102.118 19.842L100.326 19.324C99.486 21.452 97.946 23.384 96.196 24.56C96.602 24.854 97.316 25.526 97.624 25.904C98.002 25.61 98.38 25.274 98.744 24.896V25.876H101.11C100.83 27.92 100.102 29.754 96.938 30.776C97.344 31.154 97.834 31.84 98.044 32.316C101.67 30.958 102.58 28.564 102.93 25.876H105.688C105.562 28.802 105.408 30.048 105.128 30.342C104.974 30.51 104.82 30.538 104.568 30.538C104.218 30.538 103.49 30.524 102.72 30.468C103.014 30.944 103.238 31.644 103.266 32.148C104.092 32.176 104.904 32.176 105.38 32.106C105.926 32.036 106.304 31.896 106.654 31.448C107.144 30.86 107.312 29.208 107.466 24.98V24.882C107.774 25.204 108.068 25.512 108.362 25.778C108.684 25.302 109.328 24.63 109.776 24.28C108.25 23.104 106.5 21.074 105.618 19.296L103.98 19.954ZM121.802 22.306C121.55 21.788 121.046 20.906 120.696 20.388L119.59 20.85C119.968 21.382 120.402 22.222 120.682 22.796L121.802 22.306ZM117.042 25.848C117.91 25.75 118.75 25.694 119.716 25.694C120.556 25.694 121.41 25.792 122.096 25.876L122.138 24.196C121.326 24.112 120.486 24.084 119.702 24.084C118.806 24.084 117.812 24.14 117.042 24.224V25.848ZM118.134 21.41C117.378 21.592 116.594 21.746 115.81 21.858L115.922 21.34C115.992 21.032 116.118 20.416 116.216 20.024L114.102 19.856C114.13 20.192 114.116 20.752 114.046 21.27C114.018 21.48 113.976 21.76 113.92 22.054C113.5 22.082 113.094 22.096 112.688 22.096C112.114 22.096 111.652 22.082 110.938 21.998L110.98 23.72C111.47 23.748 111.988 23.776 112.66 23.776C112.94 23.776 113.248 23.762 113.57 23.748C113.486 24.14 113.374 24.532 113.276 24.91C112.758 26.856 111.708 29.754 110.882 31.154L112.828 31.798C113.584 30.16 114.522 27.332 115.026 25.386C115.18 24.812 115.32 24.196 115.446 23.608C116.37 23.496 117.308 23.342 118.134 23.146V21.41ZM116.188 27.556C116.076 28.088 115.95 28.76 115.95 29.404C115.95 30.804 117.14 31.616 119.478 31.616C120.584 31.616 121.522 31.518 122.306 31.42L122.376 29.642C121.382 29.81 120.416 29.922 119.492 29.922C118.008 29.922 117.658 29.46 117.658 28.858C117.658 28.55 117.742 28.102 117.854 27.696L116.188 27.556ZM121.242 20.206C121.634 20.738 122.082 21.55 122.376 22.138L123.482 21.662C123.244 21.172 122.726 20.29 122.348 19.758L121.242 20.206ZM125.904 19.94C125.904 20.29 125.89 20.752 125.82 21.144C125.638 22.264 125.358 24.406 125.358 26.674C125.358 28.396 125.862 30.328 126.156 31.168L127.71 31.014C127.696 30.818 127.682 30.58 127.668 30.44C127.668 30.286 127.71 29.978 127.766 29.768C127.934 28.984 128.298 27.584 128.704 26.38L127.822 25.834C127.598 26.338 127.36 27.01 127.178 27.43C126.814 25.708 127.304 22.81 127.64 21.27C127.696 20.976 127.85 20.486 127.962 20.15L125.904 19.94ZM136.866 22.376C136.292 22.488 135.564 22.572 134.78 22.628C134.78 21.872 134.78 21.158 134.794 20.85C134.808 20.542 134.808 20.22 134.864 19.912H132.834C132.904 20.15 132.96 20.57 132.988 20.864C133.016 21.242 133.044 21.956 133.058 22.726C132.526 22.74 131.994 22.754 131.49 22.754C130.748 22.754 130.076 22.712 129.39 22.614V24.378C130.076 24.406 130.93 24.448 131.532 24.448C132.036 24.448 132.568 24.434 133.086 24.42V24.924C133.086 27.262 132.862 28.494 131.798 29.6C131.406 30.034 130.706 30.468 130.174 30.706L131.784 31.966C134.542 30.202 134.794 28.2 134.794 24.924V24.35C135.578 24.308 136.292 24.252 136.852 24.182L136.866 22.376ZM141.822 28.48C141.304 28.48 140.744 27.794 140.744 26.394C140.744 24.868 141.962 22.852 144.258 22.376C144.09 23.524 143.838 24.714 143.516 25.736C142.956 27.612 142.396 28.48 141.822 28.48ZM145.63 31.574C149.13 31.042 150.922 28.97 150.922 26.058C150.922 23.034 148.752 20.64 145.322 20.64C141.724 20.64 138.938 23.384 138.938 26.576C138.938 28.914 140.24 30.608 141.766 30.608C143.278 30.608 144.482 28.9 145.308 26.1C145.7 24.798 145.938 23.51 146.134 22.334C147.996 22.656 149.032 24.084 149.032 26.002C149.032 28.018 147.66 29.292 145.882 29.712C145.518 29.796 145.126 29.866 144.594 29.936L145.63 31.574ZM164.054 21.536C163.606 21.536 163.242 21.172 163.242 20.738C163.242 20.29 163.606 19.926 164.054 19.926C164.488 19.926 164.852 20.29 164.852 20.738C164.852 21.172 164.488 21.536 164.054 21.536ZM155.122 21.06C154.66 21.06 153.862 21.004 153.456 20.948V22.922C153.82 22.894 154.478 22.866 155.122 22.866H161.646C161.45 24.07 160.918 25.652 159.994 26.814C158.86 28.242 157.292 29.446 154.506 30.104L156.032 31.77C158.538 30.972 160.4 29.586 161.66 27.906C162.836 26.352 163.438 24.182 163.76 22.81L163.872 22.39C163.928 22.404 163.998 22.404 164.054 22.404C164.964 22.404 165.72 21.648 165.72 20.738C165.72 19.814 164.964 19.058 164.054 19.058C163.13 19.058 162.374 19.814 162.374 20.738C162.374 20.836 162.388 20.92 162.402 21.004C162.094 21.046 161.8 21.06 161.604 21.06H155.122ZM177.41 23.552C177.214 23.636 176.836 23.692 176.388 23.692H169.458C169.024 23.692 168.422 23.664 167.834 23.608V25.428C168.422 25.372 169.122 25.358 169.458 25.358H176.22C175.968 26.142 175.534 27.01 174.778 27.78C173.714 28.872 172.034 29.796 169.92 30.23L171.32 31.812C173.112 31.308 174.904 30.356 176.318 28.788C177.368 27.626 177.97 26.268 178.39 24.91C178.446 24.756 178.558 24.504 178.656 24.322L177.41 23.552ZM169.122 22.068C169.528 22.04 170.13 22.026 170.578 22.026H175.94C176.444 22.026 177.102 22.04 177.48 22.068V20.262C177.088 20.318 176.402 20.332 175.968 20.332H170.578C170.102 20.332 169.514 20.318 169.122 20.262V22.068ZM183.374 20.36L182.058 21.76C183.08 22.474 184.83 24 185.558 24.784L186.986 23.314C186.174 22.474 184.354 21.018 183.374 20.36ZM181.624 29.684L182.8 31.532C184.774 31.196 186.58 30.412 187.994 29.558C190.248 28.2 192.11 26.268 193.174 24.378L192.082 22.404C191.2 24.294 189.366 26.436 186.986 27.85C185.628 28.662 183.808 29.376 181.624 29.684ZM207.72 20.78C207.482 20.29 206.964 19.408 206.586 18.876L205.48 19.338C205.872 19.856 206.32 20.682 206.614 21.27L207.72 20.78ZM198.312 19.87C198.326 20.738 198.214 21.746 198.018 22.81C197.318 22.866 196.66 22.908 196.226 22.922C195.722 22.936 195.26 22.964 194.756 22.922L194.91 24.798C195.344 24.728 196.058 24.63 196.45 24.588C196.716 24.546 197.15 24.49 197.64 24.434C197.15 26.324 196.198 29.096 194.854 30.916L196.66 31.644C197.934 29.6 198.942 26.338 199.488 24.238C199.88 24.21 200.216 24.182 200.44 24.182C201.308 24.182 201.784 24.336 201.784 25.442C201.784 26.814 201.602 28.466 201.224 29.236C201 29.698 200.65 29.838 200.188 29.838C199.824 29.838 199.012 29.698 198.48 29.544L198.788 31.378C199.25 31.49 199.922 31.574 200.44 31.574C201.504 31.574 202.26 31.266 202.722 30.3C203.31 29.096 203.506 26.884 203.506 25.246C203.506 23.258 202.47 22.6 201 22.6C200.72 22.6 200.3 22.628 199.838 22.656C199.936 22.152 200.048 21.648 200.132 21.228C200.202 20.878 200.286 20.444 200.37 20.08L198.312 19.87ZM206.054 21.424C205.774 20.906 205.284 20.024 204.934 19.506L203.828 19.968C204.15 20.416 204.5 21.088 204.78 21.62L203.492 22.166C204.486 23.398 205.466 25.848 205.83 27.388L207.594 26.562C207.188 25.344 206.152 23.006 205.34 21.732L206.054 21.424ZM211.654 28.326C211.402 28.676 211.206 28.802 210.926 28.802C210.646 28.802 210.408 28.536 210.408 28.144C210.408 27.276 211.248 26.338 212.788 26.1C212.396 26.954 212.004 27.808 211.654 28.326ZM221.37 27.22C220.964 26.954 220.46 26.618 219.886 26.296C220.026 25.512 220.096 24.644 220.152 23.72L218.332 23.51C218.388 23.958 218.374 24.49 218.346 25.022C218.332 25.176 218.318 25.33 218.304 25.498C217.408 25.106 216.4 24.77 215.322 24.602C215.812 23.426 216.316 22.222 216.68 21.634C216.792 21.438 216.946 21.256 217.142 21.046L216.036 20.178C215.798 20.276 215.434 20.36 215.098 20.388C214.454 20.444 212.97 20.5 212.186 20.5C211.878 20.5 211.402 20.486 211.038 20.444L211.108 22.236C211.458 22.18 211.948 22.124 212.242 22.11C212.872 22.068 214.062 22.026 214.608 22.012C214.286 22.67 213.894 23.608 213.502 24.504C210.716 24.63 208.77 26.282 208.77 28.424C208.77 29.824 209.68 30.664 210.898 30.664C211.85 30.664 212.508 30.286 213.054 29.446C213.544 28.676 214.146 27.304 214.664 26.114C215.84 26.282 216.932 26.702 217.912 27.234C217.45 28.494 216.484 29.824 214.384 30.72L215.868 31.924C217.716 30.958 218.766 29.74 219.382 28.172C219.802 28.48 220.208 28.816 220.572 29.138L221.37 27.22ZM222.826 23.328L223.61 25.288C225.052 24.644 228.328 23.272 230.372 23.272C232.038 23.272 232.934 24.266 232.934 25.568C232.934 27.976 229.994 29.068 226.242 29.152L227.04 31C231.926 30.748 234.922 28.732 234.922 25.596C234.922 23.034 232.948 21.592 230.442 21.592C228.412 21.592 225.598 22.586 224.52 22.908C224.016 23.062 223.33 23.244 222.826 23.328ZM240.41 19.772C240.424 20.64 240.312 21.648 240.116 22.712C239.416 22.768 238.758 22.81 238.324 22.824C237.82 22.838 237.358 22.866 236.854 22.824L237.008 24.7C237.442 24.63 238.156 24.532 238.548 24.49C238.814 24.448 239.248 24.392 239.738 24.336C239.234 26.226 238.296 28.998 236.938 30.818L238.758 31.546C240.032 29.502 241.04 26.24 241.572 24.14C241.964 24.112 242.3 24.084 242.524 24.084C243.406 24.084 243.882 24.238 243.882 25.344C243.882 26.716 243.7 28.368 243.308 29.138C243.098 29.6 242.734 29.74 242.272 29.74C241.908 29.74 241.11 29.6 240.578 29.446L240.886 31.28C241.348 31.392 242.006 31.476 242.538 31.476C243.588 31.476 244.358 31.168 244.82 30.202C245.408 28.998 245.604 26.786 245.604 25.148C245.604 23.16 244.568 22.502 243.098 22.502C242.818 22.502 242.398 22.53 241.936 22.558C242.034 22.054 242.146 21.55 242.216 21.13C242.286 20.78 242.384 20.346 242.468 19.982L240.41 19.772ZM245.576 21.984C246.57 23.216 247.564 25.722 247.928 27.262L249.678 26.436C249.258 25.12 248.096 22.474 247.256 21.284L245.576 21.984ZM256.874 30.16C256.062 30.16 255.474 29.81 255.474 29.292C255.474 28.942 255.81 28.634 256.328 28.634C257.084 28.634 257.602 29.222 257.686 30.118C257.434 30.146 257.168 30.16 256.874 30.16ZM259.926 20.164C259.758 20.206 259.436 20.262 258.862 20.304C258.078 20.374 255.11 20.444 254.382 20.444C253.99 20.444 253.514 20.416 253.122 20.374L253.178 22.18C253.5 22.124 253.934 22.082 254.312 22.068C255.04 22.012 256.944 21.928 257.658 21.914C256.972 22.516 255.53 23.678 254.76 24.322C253.934 24.994 252.268 26.408 251.288 27.206L252.548 28.508C254.032 26.828 255.418 25.694 257.546 25.694C259.156 25.694 260.416 26.534 260.416 27.78C260.416 28.62 260.038 29.264 259.282 29.67C259.072 28.354 258.036 27.304 256.328 27.304C254.858 27.304 253.836 28.34 253.836 29.46C253.836 30.846 255.292 31.728 257.224 31.728C260.57 31.728 262.236 29.992 262.236 27.808C262.236 25.792 260.444 24.322 258.092 24.322C257.644 24.322 257.252 24.35 256.79 24.476C257.658 23.776 259.114 22.544 259.856 22.026C260.164 21.816 260.486 21.606 260.822 21.396L259.926 20.164ZM270.286 27.402H271.728L272.218 22.614L272.288 20.528H269.726L269.782 22.614L270.286 27.402ZM271 31.126C271.826 31.126 272.456 30.566 272.456 29.754C272.456 28.956 271.826 28.368 271 28.368C270.174 28.368 269.544 28.956 269.544 29.754C269.544 30.566 270.174 31.126 271 31.126Z" fill="black"/>
<path d="M138.176 50.456L138.144 48.6C138.112 47.512 138.176 46.104 138.336 45.016H132.864C133.056 46.264 133.152 47.576 133.216 48.6L133.312 50.456H123.328C122.176 50.456 120.352 50.328 119.456 50.2V55.32C120.64 55.256 122.24 55.192 123.456 55.192H131.104C128.544 58.712 123.488 62.744 117.44 65.592L120.992 69.624C125.664 67.16 130.656 63.096 133.536 59.448C133.568 62.136 133.568 64.568 133.568 66.456C133.568 67.384 133.248 67.8 132.512 67.8C131.488 67.8 129.792 67.672 128.384 67.448L128.832 72.472C130.784 72.6 132.512 72.664 134.624 72.664C137.344 72.664 138.624 71.32 138.592 69.048C138.528 64.568 138.4 59.768 138.304 55.192H141.856C142.752 55.192 144.064 55.224 145.216 55.256V50.168C144.384 50.296 142.72 50.456 141.568 50.456H138.176ZM155.968 46.168L152.288 50.104C154.592 51.736 158.624 55.256 160.32 57.112L164.288 53.048C162.368 51 158.176 47.672 155.968 46.168ZM151.232 67.416L154.528 72.536C158.56 71.896 162.72 70.232 165.984 68.312C171.328 65.176 175.872 60.728 178.432 56.184L175.424 50.712C173.28 55.224 168.96 60.184 163.2 63.512C160.064 65.336 155.936 66.776 151.232 67.416ZM192.16 53.688C192.352 54.84 192.416 55.768 192.416 56.888C192.416 62.104 191.616 64.824 188.064 67.512C186.72 68.536 185.536 69.08 184.416 69.464L188.928 73.144C197.952 68.12 197.792 61.208 197.792 53.688H192.16ZM207.904 46.488C207.232 46.68 205.12 46.808 204.064 46.808H187.456C186.048 46.808 184.704 46.648 183.392 46.456V51.8C185.056 51.64 186.048 51.544 187.456 51.544H203.264C202.56 52.888 200.352 55.32 197.984 56.824L201.984 60.024C204.864 57.944 207.904 53.944 209.536 51.256C209.856 50.744 210.592 49.816 210.976 49.336L207.904 46.488ZM241.664 49.624C240.96 48.216 239.648 46.296 238.656 44.92L235.488 46.392C236.736 48.088 237.344 48.984 238.464 51.192L241.664 49.624ZM237.184 51.608C236.48 50.168 235.232 48.184 234.272 46.744L231.072 48.088C232.32 49.848 232.864 50.84 233.888 53.048L237.184 51.608ZM226.016 50.008C226.016 48.472 226.208 47.064 226.336 45.848H220.288C220.544 47.064 220.672 48.728 220.672 50.008V68.28C220.672 69.592 220.512 71.736 220.288 73.112H226.368C226.208 71.672 226.016 69.144 226.016 68.28V60.056C229.408 61.272 233.792 62.968 237.024 64.632L239.232 59.224C236.544 57.912 230.336 55.64 226.016 54.392V50.008Z" fill="#1562BF"/>
<path d="M104 58H75" stroke="#1562BF" stroke-width="1.5"/>
<path d="M285 58H256" stroke="#1562BF" stroke-width="1.5"/>
<rect x="35" y="83" width="38" height="38" stroke="#1562BF" stroke-width="2"/>
<path d="M60.176 93.456L60.144 91.6C60.112 90.512 60.176 89.104 60.336 88.016H54.864C55.056 89.264 55.152 90.576 55.216 91.6L55.312 93.456H45.328C44.176 93.456 42.352 93.328 41.456 93.2V98.32C42.64 98.256 44.24 98.192 45.456 98.192H53.104C50.544 101.712 45.488 105.744 39.44 108.592L42.992 112.624C47.664 110.16 52.656 106.096 55.536 102.448C55.568 105.136 55.568 107.568 55.568 109.456C55.568 110.384 55.248 110.8 54.512 110.8C53.488 110.8 51.792 110.672 50.384 110.448L50.832 115.472C52.784 115.6 54.512 115.664 56.624 115.664C59.344 115.664 60.624 114.32 60.592 112.048C60.528 107.568 60.4 102.768 60.304 98.192H63.856C64.752 98.192 66.064 98.224 67.216 98.256V93.168C66.384 93.296 64.72 93.456 63.568 93.456H60.176Z" fill="#1562BF"/>
<rect x="77" y="83" width="38" height="38" stroke="#1562BF" stroke-width="2"/>
<path d="M87.968 89.168L84.288 93.104C86.592 94.736 90.624 98.256 92.32 100.112L96.288 96.048C94.368 94 90.176 90.672 87.968 89.168ZM83.232 110.416L86.528 115.536C90.56 114.896 94.72 113.232 97.984 111.312C103.328 108.176 107.872 103.728 110.432 99.184L107.424 93.712C105.28 98.224 100.96 103.184 95.2 106.512C92.064 108.336 87.936 109.776 83.232 110.416Z" fill="#1562BF"/>
<rect x="119" y="83" width="38" height="38" stroke="#1562BF" stroke-width="2"/>
<path d="M147.984 96.688C147.472 96.912 146.512 97.072 145.296 97.072H130.064C128.976 97.072 127.472 96.976 126 96.848V101.84C127.44 101.712 129.264 101.68 130.064 101.68H144.624C144.08 103.152 143.216 104.752 141.648 106.32C139.344 108.624 135.632 110.736 130.64 111.792L134.512 116.176C138.608 114.992 142.768 112.656 145.936 109.104C148.304 106.448 149.648 103.44 150.704 100.368C150.832 99.984 151.152 99.312 151.408 98.832L147.984 96.688ZM129.008 94.032C129.968 93.936 131.504 93.904 132.592 93.904H144.656C145.872 93.904 147.6 93.968 148.496 94.032V89.04C147.568 89.168 145.744 89.232 144.72 89.232H132.592C131.472 89.232 129.904 89.168 129.008 89.04V94.032Z" fill="#1562BF"/>
<rect x="161" y="83" width="38" height="38" stroke="#1562BF" stroke-width="2"/>
<path d="M184.352 98.256C187.424 96.272 190.208 93.904 192.768 91.408L188.608 87.664C186.784 90.096 183.488 92.944 180.256 94.96C176.672 97.2 171.296 99.536 165.568 100.72L168.32 105.424C171.808 104.496 175.552 102.992 178.784 101.392V111.024C178.784 112.56 178.656 114.8 178.528 115.664H184.672C184.416 114.768 184.352 112.56 184.352 111.024V98.256Z" fill="#1562BF"/>
<rect x="203" y="83" width="38" height="38" stroke="#1562BF" stroke-width="2"/>
<path d="M213.968 89.168L210.288 93.104C212.592 94.736 216.624 98.256 218.32 100.112L222.288 96.048C220.368 94 216.176 90.672 213.968 89.168ZM209.232 110.416L212.528 115.536C216.56 114.896 220.72 113.232 223.984 111.312C229.328 108.176 233.872 103.728 236.432 99.184L233.424 93.712C231.28 98.224 226.96 103.184 221.2 106.512C218.064 108.336 213.936 109.776 209.232 110.416Z" fill="#1562BF"/>
<rect x="244" y="82" width="40" height="40" fill="#1562BF"/>
<path d="M258.048 97.488H261.728V93.104H258.048V86.64H253.6V93.104H249.312V97.488H253.024C252.096 101.008 250.432 104.944 248.448 107.376C249.152 108.56 250.176 110.48 250.592 111.792C251.712 110.288 252.736 108.208 253.6 105.936V117.04H258.048V104.56C258.752 105.776 259.392 107.024 259.808 107.952L262.4 104.208C261.792 103.408 259.2 100.112 258.048 98.864V97.488ZM267.168 110.736V107.472H273.472V110.736H267.168ZM273.472 100.016V103.28H267.168V100.016H273.472ZM273.472 92.656V95.824H267.168V92.656H273.472ZM262.72 88.272V116.752H267.168V114.928H273.472V116.496H278.144V88.272H262.72Z" fill="white"/>
<rect x="286" y="82" width="40" height="40" fill="#1562BF"/>
<path d="M317.968 94.736C318.832 93.424 319.92 91.472 321.04 89.52L316.56 88.176C316.144 89.808 315.28 92.016 314.512 93.488L317.968 94.736ZM321.104 98.416C319.44 97.072 316.304 95.152 313.776 93.712C314.288 91.664 314.48 89.296 314.576 86.64H310.032C309.808 92.752 309.52 96.4 302.8 98.48C303.76 99.344 304.912 101.04 305.36 102.16C308.624 101.04 310.736 99.504 312.08 97.584C314.352 99.056 316.752 100.72 318.032 101.904L321.104 98.416ZM302.096 87.568H292.432V91.024H302.096V87.568ZM303.216 93.808L306.64 95.216C307.952 93.712 308.784 91.312 309.104 89.136L305.328 88.4C305.008 90.256 304.24 92.24 303.216 93.456V91.952H290.8V95.568H303.216V93.808ZM302.16 96.528H292.336V99.984H302.16V96.528ZM292.336 104.4H302.16V100.944H292.336V104.4ZM298.288 109.072V111.792H296.112V109.072H298.288ZM302.224 105.456H292.24V116.56H296.112V115.408H302.224V105.456ZM304.944 102.384C304.496 104.496 303.536 106.8 302.256 108.048L306.096 109.936C307.568 108.272 308.56 105.648 308.976 103.184L304.944 102.384ZM317.936 109.008C318.896 107.632 320.08 105.552 321.232 103.504L316.656 102.128C316.208 103.6 315.472 105.52 314.704 106.992C314.544 106.416 314.48 105.872 314.48 105.392V100.368H309.712V105.392C309.712 107.728 307.824 111.344 302.384 113.296C303.216 114.192 304.432 116.048 304.944 117.104C308.656 115.696 311.376 112.56 312.112 110.576C312.784 112.56 315.184 115.792 318.704 117.104C319.344 115.984 320.56 114.192 321.392 113.136C317.808 111.792 315.952 109.84 315.088 108.016L317.936 109.008Z" fill="white"/>
</svg>
