<svg width="300" height="60" viewBox="0 0 300 60" fill="none" xmlns="http://www.w3.org/2000/svg">
<rect width="300" height="60" fill="#FEF586"/>
<path d="M29.7683 37.152H28.0043V29.277H29.7683V37.152ZM18.3653 29.277H20.0243V37.152H18.3653V29.277ZM25.2743 30.264H22.7333V29.277H25.2743V30.264ZM22.7333 36.081H25.2743V37.152H22.7333V36.081ZM25.2743 33.729H22.7333V32.616H25.2743V33.729ZM33.8003 25.014V22.137H14.6063V25.014H22.0823C22.0193 25.497 21.9353 26.001 21.8723 26.484H15.4253V40.995H18.3653V39.945H29.7683V40.995H32.8763V26.484H25.1063L25.5683 25.014H33.8003ZM52.5953 26.358C53.1623 25.497 53.8763 24.216 54.6113 22.935L51.6713 22.053C51.3983 23.124 50.8313 24.573 50.3273 25.539L52.5953 26.358ZM54.6533 28.773C53.5613 27.891 51.5033 26.631 49.8443 25.686C50.1803 24.342 50.3063 22.788 50.3693 21.045H47.3873C47.2403 25.056 47.0513 27.45 42.6413 28.815C43.2713 29.382 44.0273 30.495 44.3213 31.23C46.4633 30.495 47.8493 29.487 48.7313 28.227C50.2223 29.193 51.7973 30.285 52.6373 31.062L54.6533 28.773ZM42.1793 21.654H35.8373V23.922H42.1793V21.654ZM42.9143 25.749L45.1613 26.673C46.0223 25.686 46.5683 24.111 46.7783 22.683L44.3003 22.2C44.0903 23.418 43.5863 24.72 42.9143 25.518V24.531H34.7663V26.904H42.9143V25.749ZM42.2213 27.534H35.7743V29.802H42.2213V27.534ZM35.7743 32.7H42.2213V30.432H35.7743V32.7ZM39.6803 35.766V37.551H38.2523V35.766H39.6803ZM42.2633 33.393H35.7113V40.68H38.2523V39.924H42.2633V33.393ZM44.0483 31.377C43.7543 32.763 43.1243 34.275 42.2843 35.094L44.8043 36.333C45.7703 35.241 46.4213 33.519 46.6943 31.902L44.0483 31.377ZM52.5743 35.724C53.2043 34.821 53.9813 33.456 54.7373 32.112L51.7343 31.209C51.4403 32.175 50.9573 33.435 50.4533 34.401C50.3483 34.023 50.3063 33.666 50.3063 33.351V30.054H47.1773V33.351C47.1773 34.884 45.9383 37.257 42.3683 38.538C42.9143 39.126 43.7123 40.344 44.0483 41.037C46.4843 40.113 48.2693 38.055 48.7523 36.753C49.1933 38.055 50.7683 40.176 53.0783 41.037C53.4983 40.302 54.2963 39.126 54.8423 38.433C52.4903 37.551 51.2723 36.27 50.7053 35.073L52.5743 35.724ZM64.0721 43.305L66.4031 42.339C64.6601 39.231 63.9041 35.703 63.9041 32.322C63.9041 28.962 64.6601 25.413 66.4031 22.305L64.0721 21.339C62.0561 24.636 60.9011 28.101 60.9011 32.322C60.9011 36.564 62.0561 40.008 64.0721 43.305ZM73.9083 36.501C72.9213 36.501 71.9553 35.724 71.6403 33.12C72.2703 32.091 73.0683 31.713 73.8453 31.713C74.8743 31.713 75.7143 32.28 75.7143 34.002C75.7143 35.766 74.8953 36.501 73.9083 36.501ZM78.9273 24.951C77.9403 23.943 76.4283 23.082 74.3703 23.082C71.1363 23.082 68.1543 25.665 68.1543 31.314C68.1543 37.005 71.0523 39.294 73.9923 39.294C76.7853 39.294 79.1373 37.32 79.1373 34.002C79.1373 30.6 77.1633 29.088 74.5593 29.088C73.6773 29.088 72.3543 29.634 71.5773 30.621C71.7243 27.219 73.0053 26.064 74.6223 26.064C75.4833 26.064 76.4493 26.61 76.9533 27.156L78.9273 24.951ZM85.9492 39.294C89.2462 39.294 91.4932 36.48 91.4932 31.104C91.4932 25.77 89.2462 23.082 85.9492 23.082C82.6522 23.082 80.4262 25.728 80.4262 31.104C80.4262 36.48 82.6522 39.294 85.9492 39.294ZM85.9492 36.396C84.8362 36.396 83.9542 35.388 83.9542 31.104C83.9542 26.841 84.8362 25.959 85.9492 25.959C87.0622 25.959 87.9652 26.841 87.9652 31.104C87.9652 35.388 87.0622 36.396 85.9492 36.396ZM103.555 22.389C104.668 24.531 106.159 26.715 107.692 28.626H97.5911C99.1451 26.757 100.531 24.51 101.518 22.2L98.2001 21.234C96.9611 24.405 94.6301 27.366 92.0261 29.088C92.7611 29.655 94.0841 30.894 94.6511 31.566C95.1551 31.167 95.6381 30.726 96.1211 30.243V31.587H99.2711C98.8721 34.359 97.7801 36.816 93.1811 38.328C93.9161 39 94.7981 40.302 95.1761 41.163C100.72 39.063 102.106 35.556 102.61 31.587H106.054C105.907 35.472 105.718 37.215 105.34 37.635C105.088 37.887 104.857 37.95 104.5 37.95C103.975 37.95 102.988 37.929 101.938 37.845C102.484 38.706 102.904 40.029 102.946 40.932C104.143 40.953 105.319 40.953 106.054 40.827C106.915 40.68 107.545 40.449 108.154 39.651C108.847 38.769 109.078 36.354 109.267 30.453C109.582 30.789 109.897 31.104 110.191 31.398C110.779 30.537 111.976 29.277 112.795 28.626C110.485 26.757 107.881 23.775 106.579 21.192L103.555 22.389ZM116.05 43.305C118.066 40.008 119.221 36.564 119.221 32.322C119.221 28.101 118.066 24.636 116.05 21.339L113.719 22.305C115.462 25.413 116.218 28.962 116.218 32.322C116.218 35.703 115.462 39.231 113.719 42.339L116.05 43.305ZM138.024 36.186L132.816 30.978L138.024 25.77L136.239 23.985L131.031 29.193L125.823 23.985L124.038 25.77L129.246 30.978L124.038 36.186L125.823 37.971L131.031 32.763L136.239 37.971L138.024 36.186ZM141.972 39H152.808V35.85H149.931C149.238 35.85 148.167 35.955 147.39 36.06C149.784 33.645 152.094 30.684 152.094 27.996C152.094 25.014 149.994 23.082 146.97 23.082C144.744 23.082 143.316 23.88 141.783 25.497L143.82 27.513C144.555 26.715 145.395 26.001 146.466 26.001C147.705 26.001 148.503 26.778 148.503 28.206C148.503 30.474 145.878 33.309 141.972 36.858V39ZM178.079 32.259L179.864 29.172C180.305 28.29 180.725 27.387 181.124 26.505H181.208C181.166 27.492 181.061 28.983 181.061 29.97V32.259H178.079ZM186.29 32.259H184.547V23.376H179.948L174.509 32.511V35.094H181.061V39H184.547V35.094H186.29V32.259ZM190.456 32.259L192.241 29.172C192.682 28.29 193.102 27.387 193.501 26.505H193.585C193.543 27.492 193.438 28.983 193.438 29.97V32.259H190.456ZM198.667 32.259H196.924V23.376H192.325L186.886 32.511V35.094H193.438V39H196.924V35.094H198.667V32.259ZM202.686 38.853C202.686 40.029 201.72 41.142 199.914 41.772L200.67 43.767C203.568 42.885 205.143 40.848 205.143 38.139C205.143 35.955 204.24 34.653 202.602 34.653C201.3 34.653 200.271 35.493 200.271 36.753C200.271 38.097 201.342 38.853 202.497 38.853H202.686ZM212.127 39.294C215.424 39.294 217.671 36.48 217.671 31.104C217.671 25.77 215.424 23.082 212.127 23.082C208.83 23.082 206.604 25.728 206.604 31.104C206.604 36.48 208.83 39.294 212.127 39.294ZM212.127 36.396C211.014 36.396 210.132 35.388 210.132 31.104C210.132 26.841 211.014 25.959 212.127 25.959C213.24 25.959 214.143 26.841 214.143 31.104C214.143 35.388 213.24 36.396 212.127 36.396ZM224.504 39.294C227.801 39.294 230.048 36.48 230.048 31.104C230.048 25.77 227.801 23.082 224.504 23.082C221.207 23.082 218.981 25.728 218.981 31.104C218.981 36.48 221.207 39.294 224.504 39.294ZM224.504 36.396C223.391 36.396 222.509 35.388 222.509 31.104C222.509 26.841 223.391 25.959 224.504 25.959C225.617 25.959 226.52 26.841 226.52 31.104C226.52 35.388 225.617 36.396 224.504 36.396ZM236.881 39.294C240.178 39.294 242.425 36.48 242.425 31.104C242.425 25.77 240.178 23.082 236.881 23.082C233.584 23.082 231.358 25.728 231.358 31.104C231.358 36.48 233.584 39.294 236.881 39.294ZM236.881 36.396C235.768 36.396 234.886 35.388 234.886 31.104C234.886 26.841 235.768 25.959 236.881 25.959C237.994 25.959 238.897 26.841 238.897 31.104C238.897 35.388 237.994 36.396 236.881 36.396ZM254.823 30.159V25.35H259.422V30.159H254.823ZM247.494 25.35H251.778V30.159H247.494V25.35ZM262.509 22.326H244.428V40.974H247.494V33.183H259.422V37.509C259.422 37.887 259.275 38.013 258.876 38.013C258.477 38.013 257.091 38.034 255.999 37.95C256.44 38.727 256.965 40.134 257.091 40.995C258.96 40.995 260.262 40.932 261.228 40.428C262.194 39.924 262.509 39.105 262.509 37.551V22.326ZM267.598 40.845L268.597 40.431C267.85 39.099 267.526 37.587 267.526 36.138C267.526 34.698 267.85 33.177 268.597 31.845L267.598 31.431C266.734 32.844 266.239 34.329 266.239 36.138C266.239 37.956 266.734 39.432 267.598 40.845ZM273.02 36.3C272.858 36.111 272.147 35.355 271.904 35.157V35.049H272.768V33.834H271.904V32.709C272.264 32.61 272.615 32.511 272.939 32.385L272.075 31.377C271.364 31.692 270.293 31.962 269.303 32.124C269.447 32.394 269.609 32.835 269.663 33.123C269.978 33.087 270.302 33.033 270.635 32.979V33.834H269.438V35.049H270.464C270.158 35.832 269.717 36.687 269.249 37.236C269.447 37.569 269.726 38.118 269.843 38.496C270.131 38.118 270.392 37.623 270.635 37.074V39.855H271.904V36.588C272.057 36.858 272.192 37.128 272.282 37.326L273.02 36.3ZM276.215 35.157H274.325V34.23H276.215V35.157ZM276.656 38.568C276.584 38.568 276.575 38.541 276.575 38.244V36.291H277.52V33.096H276.782C277.034 32.727 277.331 32.232 277.628 31.728L276.278 31.296C276.125 31.782 275.828 32.412 275.576 32.835L276.287 33.096H274.361L274.91 32.853C274.775 32.412 274.415 31.791 274.082 31.323L273.002 31.791C273.254 32.187 273.524 32.691 273.668 33.096H273.083V36.291H273.695C273.623 37.407 273.425 38.28 272.102 38.829C272.381 39.072 272.732 39.549 272.867 39.873C274.532 39.108 274.865 37.857 274.973 36.291H275.315V38.253C275.315 39.351 275.504 39.738 276.413 39.738H276.917C277.619 39.738 277.925 39.36 278.033 38.01C277.7 37.929 277.16 37.713 276.926 37.515C276.908 38.433 276.872 38.568 276.773 38.568H276.656ZM282.974 33.591C282.722 35.256 282.065 36.552 280.841 37.263C281.138 37.488 281.651 38.001 281.84 38.253C282.722 37.641 283.37 36.75 283.811 35.625C284.198 36.714 284.828 37.623 285.845 38.244C286.079 37.929 286.556 37.452 286.862 37.236C284.945 36.282 284.486 34.095 284.396 31.638H281.75V32.871H283.28C283.298 33.132 283.325 33.393 283.361 33.645L282.974 33.591ZM280.895 32.853C280.589 32.439 279.932 31.881 279.419 31.512L278.447 32.295C278.96 32.7 279.59 33.303 279.851 33.717L280.895 32.853ZM280.688 34.788H278.483V35.994H279.41V37.668C279.032 37.938 278.618 38.19 278.249 38.397L278.879 39.765C279.365 39.378 279.743 39.054 280.112 38.73C280.706 39.423 281.417 39.648 282.488 39.693C283.613 39.747 285.404 39.729 286.547 39.666C286.61 39.279 286.817 38.649 286.961 38.334C285.665 38.451 283.613 38.478 282.515 38.433C281.633 38.397 281.021 38.172 280.688 37.614V34.788ZM288.626 40.845C289.49 39.432 289.985 37.956 289.985 36.138C289.985 34.329 289.49 32.844 288.626 31.431L287.627 31.845C288.374 33.177 288.698 34.698 288.698 36.138C288.698 37.587 288.374 39.099 287.627 40.431L288.626 40.845Z" fill="black"/>
</svg>
