<svg width="112" height="73" viewBox="0 0 112 73" fill="none" xmlns="http://www.w3.org/2000/svg">
<path d="M11.4963 54.3598C5.1358 54.3598 0 49.1845 0 42.8635C0 36.503 5.17531 31.3672 11.4963 31.3672C17.8568 31.3672 22.9926 36.5425 22.9926 42.8635C22.9926 49.224 17.8568 54.3598 11.4963 54.3598ZM11.4963 36.345C7.90124 36.345 4.97778 39.2684 4.97778 42.8635C4.97778 46.4585 7.90124 49.382 11.4963 49.382C15.0914 49.382 18.0148 46.4585 18.0148 42.8635C18.0148 39.2684 15.0914 36.345 11.4963 36.345Z" fill="url(#paint0_linear_647_2756)"/>
<path d="M46.1829 46.4216H41.2051V37.2167C41.2051 34.8858 39.3088 32.9895 36.978 32.9895C34.6471 32.9895 32.7508 34.8858 32.7508 37.2167V46.4216H27.773V37.2167C27.773 32.1204 31.9212 28.0117 36.978 28.0117C42.0348 28.0117 46.1829 32.1599 46.1829 37.2167V46.4216Z" fill="url(#paint1_linear_647_2756)"/>
<path d="M60.1283 24.5723C55.032 24.5723 50.9234 28.7204 50.9234 33.7772C50.9234 38.8735 55.0715 42.9821 60.1283 42.9821H69.3332V33.7772C69.3332 28.7204 65.2246 24.5723 60.1283 24.5723ZM55.9011 33.8167C55.9011 31.4859 57.7974 29.5896 60.1283 29.5896C62.4592 29.5896 64.3555 31.4859 64.3555 33.8167C64.3555 36.1476 62.4592 38.0439 60.1283 38.0439C57.7974 38.0439 55.9011 36.1476 55.9011 33.8167Z" fill="url(#paint2_linear_647_2756)"/>
<path d="M112 7.0716L87.5457 0V22.2025C86.2815 21.5309 84.8198 21.1753 83.3185 21.1753C78.2222 21.1753 74.1136 25.3235 74.1136 30.3802C74.1136 35.4765 78.2617 39.5852 83.3185 39.5852C88.4148 39.5852 92.5235 35.437 92.5235 30.3802V12.6815L112 7.0716ZM83.279 34.6469C80.9481 34.6469 79.0519 32.7506 79.0519 30.4198C79.0519 28.0889 80.9481 26.1926 83.279 26.1926C85.6099 26.1926 87.5062 28.0889 87.5062 30.4198C87.5457 32.7506 85.6494 34.6469 83.279 34.6469Z" fill="url(#paint3_linear_647_2756)"/>
<path d="M34.9626 59.9313H32.5132V59.2202C32.5132 58.4695 31.9206 57.877 31.17 57.877C30.4194 57.877 29.8268 58.4695 29.8268 59.2202V59.9313H22.8342C22.0836 59.9313 21.491 60.5239 21.491 61.2745C21.491 62.0251 22.0836 62.6177 22.8342 62.6177H27.6934C26.9823 64.356 25.2836 67.3584 21.491 69.1362V72.0597C26.3107 70.2424 28.7206 66.8449 29.8268 64.435V72.1782H32.5132V62.6177H34.9626V59.9313Z" fill="#595757"/>
<path d="M40.2173 61.3934H45.4321V58.707H40.2173C39.4667 58.707 38.8741 59.2996 38.8741 60.0502C38.8346 60.8009 39.4667 61.3934 40.2173 61.3934Z" fill="#595757"/>
<path d="M49.7774 61.4731C48.9478 66.1743 45.5502 68.9003 40.2564 68.9003C39.5058 68.9003 38.9132 69.4928 38.9132 70.2435C38.9132 70.9941 39.5058 71.5867 40.2564 71.5867C46.9725 71.5867 51.5947 67.6756 52.5033 61.4336H49.7774V61.4731Z" fill="#595757"/>
<path d="M69.3727 59.7338C69.3727 58.9832 68.7801 58.3906 68.0295 58.3906H56.8493C56.0987 58.3906 55.5061 58.9832 55.5061 59.7338C55.5061 60.4844 56.0987 61.0771 56.8493 61.0771H66.4098C65.9357 62.4993 64.711 64.3166 62.3801 64.8301C62.4196 64.4746 62.4196 64.0795 62.4196 63.6845C62.4196 62.9338 61.827 62.3412 61.0764 62.3412C60.3258 62.3412 59.7332 62.9338 59.7332 63.6845C59.7332 67.7931 57.3233 69.1363 55.5061 69.5314V72.2968C57.0863 72.0203 58.548 71.3882 59.6937 70.4005C60.3653 69.8079 61.1555 68.8993 61.669 67.6351C67.1209 67.3585 69.3727 62.4203 69.3727 59.7338Z" fill="#595757"/>
<path d="M85.0176 62.5387H75.9707V59.2202C75.9707 58.4695 75.3781 57.877 74.6275 57.877C73.8769 57.877 73.2843 58.4695 73.2843 59.2202V72.1782H75.9707V65.2251H85.0176V62.5387Z" fill="#595757"/>
<path d="M85.1749 54.3598C84.6613 54.3598 84.2267 54.7944 84.2267 55.308C84.2267 55.8215 84.6613 56.2561 85.1749 56.2561H90.5082V54.3203H85.1749V54.3598Z" fill="#595757"/>
<path d="M82.7254 58.4692C82.2118 58.4692 81.7772 58.9038 81.7772 59.4173C81.7772 59.9309 82.2118 60.3655 82.7254 60.3655H88.0587V58.4297H82.7254V58.4692Z" fill="#595757"/>
<defs>
<linearGradient id="paint0_linear_647_2756" x1="3.37359" y1="51.0007" x2="78.2708" y2="-23.8965" gradientUnits="userSpaceOnUse">
<stop stop-color="#8C00FF"/>
<stop offset="0.3389" stop-color="#AA00AA"/>
<stop offset="0.6649" stop-color="#FF0078"/>
<stop offset="1" stop-color="#FFAA00"/>
</linearGradient>
<linearGradient id="paint1_linear_647_2756" x1="14.6064" y1="62.2496" x2="89.5036" y2="-12.6476" gradientUnits="userSpaceOnUse">
<stop stop-color="#8C00FF"/>
<stop offset="0.3389" stop-color="#AA00AA"/>
<stop offset="0.6649" stop-color="#FF0078"/>
<stop offset="1" stop-color="#FFAA00"/>
</linearGradient>
<linearGradient id="paint2_linear_647_2756" x1="24.4954" y1="72.1365" x2="99.3927" y2="-2.76063" gradientUnits="userSpaceOnUse">
<stop stop-color="#8C00FF"/>
<stop offset="0.3389" stop-color="#AA00AA"/>
<stop offset="0.6649" stop-color="#FF0078"/>
<stop offset="1" stop-color="#FFAA00"/>
</linearGradient>
<linearGradient id="paint3_linear_647_2756" x1="29.7555" y1="77.397" x2="104.653" y2="2.49989" gradientUnits="userSpaceOnUse">
<stop stop-color="#8C00FF"/>
<stop offset="0.3389" stop-color="#AA00AA"/>
<stop offset="0.6649" stop-color="#FF0078"/>
<stop offset="1" stop-color="#FFAA00"/>
</linearGradient>
</defs>
</svg>
