<svg width="53" height="35" viewBox="0 0 53 35" fill="none" xmlns="http://www.w3.org/2000/svg">
<path d="M5.40658 26.1842C2.41531 26.1842 0 23.7504 0 20.7777C0 17.7864 2.43389 15.3711 5.40658 15.3711C8.39785 15.3711 10.8132 17.805 10.8132 20.7777C10.8132 23.7504 8.39785 26.1842 5.40658 26.1842ZM5.40658 17.7121C3.71586 17.7121 2.34099 19.087 2.34099 20.7777C2.34099 22.4684 3.71586 23.8433 5.40658 23.8433C7.09729 23.8433 8.47216 22.4684 8.47216 20.7777C8.47216 19.087 7.09729 17.7121 5.40658 17.7121Z" fill="white"/>
<path d="M21.7192 22.4509H19.3782V18.1219C19.3782 17.0258 18.4864 16.134 17.3902 16.134C16.294 16.134 15.4022 17.0258 15.4022 18.1219V22.4509H13.0612V18.1219C13.0612 15.7252 15.012 13.793 17.3902 13.793C19.7683 13.793 21.7192 15.7438 21.7192 18.1219V22.4509Z" fill="white"/>
<path d="M28.2777 12.1758C25.8809 12.1758 23.9487 14.1266 23.9487 16.5048C23.9487 18.9015 25.8995 20.8337 28.2777 20.8337H32.6067V16.5048C32.6067 14.108 30.6744 12.1758 28.2777 12.1758ZM26.2897 16.5048C26.2897 15.4086 27.1815 14.5168 28.2777 14.5168C29.3739 14.5168 30.2657 15.4086 30.2657 16.5048C30.2657 17.6009 29.3739 18.4927 28.2777 18.4927C27.1815 18.5113 26.2897 17.6009 26.2897 16.5048Z" fill="white"/>
<path d="M52.672 3.94484L41.1715 0.619141V11.0607C40.5769 10.7449 39.8895 10.5776 39.1835 10.5776C36.7867 10.5776 34.8545 12.5285 34.8545 14.9066C34.8545 17.3034 36.8053 19.2356 39.1835 19.2356C41.5802 19.2356 43.5124 17.2848 43.5124 14.9066V6.5831L52.672 3.94484ZM39.1649 16.9132C38.0687 16.9132 37.1769 16.0214 37.1769 14.9252C37.1769 13.829 38.0687 12.9372 39.1649 12.9372C40.2611 12.9372 41.1529 13.829 41.1529 14.9252C41.1529 16.0214 40.2796 16.9132 39.1649 16.9132Z" fill="white"/>
<path d="M16.4431 28.7845H15.2912V28.4501C15.2912 28.097 15.0125 27.8184 14.6595 27.8184C14.3065 27.8184 14.0278 28.097 14.0278 28.4501V28.7845H10.7393C10.3863 28.7845 10.1076 29.0632 10.1076 29.4162C10.1076 29.7692 10.3863 30.0479 10.7393 30.0479H13.0246C12.6901 30.8654 11.8912 32.2774 10.1076 33.1135V34.4883C12.3743 33.6337 13.5076 32.0359 14.0278 30.9025V34.5441H15.2912V30.0479H16.4431V28.7845Z" fill="white"/>
<path d="M18.9143 29.49H21.3667V28.2266H18.9143C18.5613 28.2266 18.2826 28.5053 18.2826 28.8583C18.264 29.2113 18.5613 29.49 18.9143 29.49Z" fill="white"/>
<path d="M23.4107 29.5264C23.0206 31.7373 21.4228 33.0193 18.9331 33.0193C18.5801 33.0193 18.3014 33.298 18.3014 33.651C18.3014 34.004 18.5801 34.2827 18.9331 34.2827C22.0916 34.2827 24.2654 32.4433 24.6927 29.5078H23.4107V29.5264Z" fill="white"/>
<path d="M32.6256 28.7098C32.6256 28.3568 32.3469 28.0781 31.9939 28.0781H26.7359C26.3829 28.0781 26.1042 28.3568 26.1042 28.7098C26.1042 29.0628 26.3829 29.3415 26.7359 29.3415H31.2321C31.0092 30.0104 30.4332 30.865 29.337 31.1066C29.3556 30.9393 29.3556 30.7535 29.3556 30.5678C29.3556 30.2147 29.0769 29.9361 28.7239 29.9361C28.3709 29.9361 28.0922 30.2147 28.0922 30.5678C28.0922 32.5 26.9589 33.1317 26.1042 33.3175V34.618C26.8474 34.488 27.5348 34.1907 28.0736 33.7262C28.3895 33.4475 28.7611 33.0202 29.0026 32.4257C31.5666 32.277 32.6256 29.9732 32.6256 28.7098Z" fill="white"/>
<path d="M39.9832 30.0107H35.7285V28.4501C35.7285 28.097 35.4499 27.8184 35.0968 27.8184C34.7438 27.8184 34.4651 28.097 34.4651 28.4501V34.5441H35.7285V31.2741H39.9832V30.0107Z" fill="white"/>
<path d="M40.0579 26.1836C39.8163 26.1836 39.612 26.388 39.612 26.6295C39.612 26.871 39.8163 27.0754 40.0579 27.0754H42.5661V26.1836H40.0579Z" fill="white"/>
<path d="M38.906 28.0967C38.6644 28.0967 38.4601 28.3011 38.4601 28.5426C38.4601 28.7841 38.6644 28.9885 38.906 28.9885H41.4142V28.0781H38.906V28.0967Z" fill="white"/>
</svg>
