<svg width="113" height="27" viewBox="0 0 113 27" fill="none" xmlns="http://www.w3.org/2000/svg">
<path d="M44.3154 8.58496V5.07031H41.4883V8.58496H34.7646V17.3716H37.3625V16.5312H41.5648V22.4144H44.3918V16.5312L48.5177 16.4548V17.2188H51.0391V8.43216L44.3154 8.58496ZM41.412 15.3087H37.2096V9.80746H41.412V15.3087ZM48.4413 15.3087L44.3154 15.3851V9.80746H48.4413V15.3087Z" fill="#231815"/>
<path d="M96.6533 9.88332C98.6398 9.04286 100.474 7.51475 102.078 5.83383L102.002 5.75741L100.168 4.68774L100.015 4.61133C98.7926 6.29226 97.3409 8.3552 95.5072 9.42488C95.5836 9.57769 95.9656 9.95972 96.1184 10.1125C96.1184 10.1889 96.3476 10.0361 96.6533 9.88332Z" fill="#231815"/>
<path d="M112.546 5.67969H102.766V6.82577H112.546V5.67969Z" fill="#231815"/>
<path d="M102.231 9.65438C102.231 9.65438 100.855 8.8139 100.168 8.35547L100.091 8.43188C98.8687 10.5712 97.3406 12.787 95.3541 14.6208L95.4305 14.6971C95.6597 14.85 96.1181 15.232 96.1181 15.232C96.7294 14.9264 97.3406 14.5443 97.9519 14.1623V22.1085H100.473V12.0229C101.161 11.1061 101.849 10.4948 102.231 9.65438Z" fill="#231815"/>
<path d="M102.231 10.2656V11.4117H107.503V20.1984C106.968 21.1152 105.134 20.5804 105.134 20.6568L105.44 21.9557C106.586 21.9557 107.808 22.1085 108.954 21.8029C109.489 21.4973 110.1 21.1916 110.1 20.4276V11.4881H112.851V10.342L102.231 10.2656Z" fill="#231815"/>
<path d="M55.2412 5.68359V22.0344H57.6098V21.2704H68.6887V22.0344H71.1336V5.68359H55.2412ZM68.765 19.9715H57.6862V6.75327H68.765V19.9715Z" fill="#231815"/>
<path d="M68.23 17.3735H64.4097V13.4769H67.2368V12.3308H64.4097V9.42734H68.0772V8.28125H58.3737V9.42734H61.812V12.3308H59.2905V13.4769H61.812V17.3735H58.2209V18.596H68.23V17.3735Z" fill="#231815"/>
<path d="M65.1739 14.1638C65.5559 15.0806 66.0143 15.9975 66.1671 16.9908L66.2436 17.0672C66.8548 16.9144 67.4661 16.6087 68.0009 16.3795L68.0773 16.2267C67.5425 15.3098 66.7784 14.393 66.0144 13.6289C66.0908 13.7053 65.5559 14.0109 65.1739 14.1638Z" fill="#231815"/>
<path d="M92.9095 19.5874C92.2983 19.2818 91.6871 18.8234 91.2286 18.4413C90.8466 18.1357 90.3882 17.7537 90.1589 17.2952C91.0758 16.9132 91.9927 16.5312 92.8331 15.9963C92.5275 15.3851 92.0691 14.4682 91.7635 13.857C91.687 13.7806 91.7635 13.9334 91.6871 14.0098C91.3814 14.3154 91.2286 14.6974 90.8466 15.0031C90.3882 15.3851 89.9297 15.9199 89.3949 16.2255C88.7836 15.5379 88.5544 14.621 88.3252 13.7042L88.2488 13.2457H91.9927V5.37593H83.8173C83.8173 5.37593 83.8173 8.89058 83.8173 9.73105C82.6712 8.96699 81.9835 7.66811 81.4487 6.59843C81.143 6.06359 80.9139 5.60515 80.761 5.07031H78.3161C77.934 6.13999 76.7879 8.8142 74.8778 10.0367C74.9542 10.1131 75.1834 10.5715 75.4126 10.8771L75.489 10.9535L76.8643 10.1131V10.6479H78.3161V12.7109H75.7182V13.857H78.3161V19.511C78.3161 19.511 78.2397 19.5874 77.8576 19.6638C77.0936 19.8166 76.3295 19.8166 75.489 19.9694C75.6418 20.8863 75.7947 21.6504 76.0239 22.2616C76.0239 22.2616 80.3026 21.0391 82.2892 20.0458L82.9768 19.6638C82.9768 19.3582 82.9768 18.8233 82.9768 18.5941C82.2127 18.8997 81.6015 19.0526 80.9903 19.2054L80.8374 19.2818V14.0098H82.9768V12.8637H80.8374V10.8007H82.3655V10.1895L83.5116 10.8007C83.5116 10.8007 83.8173 10.4951 83.9701 10.3423V19.9694C83.5117 20.1223 83.206 20.1987 82.824 20.3515H82.6712C82.7476 21.0391 82.9768 21.8796 83.206 22.5672L83.3588 22.4908C85.1161 21.8032 86.8735 20.9627 88.4016 19.7402C88.478 19.3582 88.478 18.9762 88.478 18.6705C87.9432 18.9762 87.5612 19.129 87.0263 19.2818C86.8735 19.3582 86.6443 19.4346 86.415 19.4346V13.5513H87.4084C87.9432 16.6076 89.0129 19.6638 91.5342 21.8032C91.7635 22.0324 92.0691 22.2616 92.3747 22.338L93.2916 19.893L92.9095 19.5874ZM77.7048 9.57825C78.3161 8.8906 78.9273 8.05014 79.5385 7.36249C80.2262 8.05014 80.8375 8.89059 81.5251 9.50184L77.7048 9.57825ZM86.1095 6.52202H89.6241V8.81419H86.1095V6.52202ZM86.1095 12.2525V9.96028H89.6241V12.2525H86.1095Z" fill="#231815"/>
<path d="M80.9139 18.1353L80.9903 18.2117C81.2959 18.2881 81.9072 18.4409 81.9072 18.4409C82.5948 17.5241 83.2061 16.378 83.5117 15.2319L83.4353 15.1555C82.8241 15.0027 82.2128 14.8498 81.5252 14.7734C81.4488 15.9959 81.296 16.9128 80.9139 18.1353Z" fill="#231815"/>
<path d="M77.0935 15.8439L76.5586 15.1562C76.5586 15.1562 76.3294 15.2327 75.9474 15.2327C75.871 15.3091 75.5654 15.3091 75.5654 15.3091C75.9474 16.4552 76.1002 17.6776 76.1002 18.9001C76.4822 18.8237 77.4755 18.5945 78.0868 18.5181C78.0104 17.6012 77.6283 16.6844 77.0935 15.8439Z" fill="#231815"/>
<path d="M16.5801 4.30812L7.18216 13.706L16.5036 23.0275L12.9126 26.6186L0 13.706L12.989 0.640625L16.5801 4.30812Z" fill="#9299B1"/>
<path d="M21.0116 8.81569L16.198 13.7057L21.0116 18.5956L17.4205 22.0339L9.09229 13.6292L17.5733 5.22461L21.0116 8.81569Z" fill="#9299B1"/>
<path d="M25.9017 13.6311L22.005 17.5278L18.0319 13.6311L22.005 9.73438L25.9017 13.6311Z" fill="#D61442"/>
</svg>
