<svg width="140" height="24" viewBox="0 0 140 24" fill="none" xmlns="http://www.w3.org/2000/svg">
<path d="M34.3817 6.39509H31.7814C31.9258 6.61178 32.1426 7.33407 32.4315 8.05637H30.5535C30.3368 7.4063 30.1201 6.9007 29.9034 6.39509H29.3978C29.1811 6.82847 28.7477 7.4063 28.3866 7.69522H26.0752C27.5921 6.46731 28.6033 4.37264 28.8922 3.65034H30.6979C30.5535 4.01149 30.409 4.51711 30.2646 4.87826H34.4539L34.3817 6.39509ZM43.0493 4.80602H37.5598C37.7042 4.44487 37.8487 3.93927 37.9209 3.57812H36.1874C35.8263 4.80603 35.0317 6.53954 33.8038 7.62298H35.754C35.9707 7.33406 36.1874 6.97292 36.6208 6.32285H37.4876C37.7043 6.684 37.7043 6.90069 38.2099 7.98413H40.0878C39.7989 7.1896 39.4378 6.46731 39.4378 6.32285H42.9048L43.0493 4.80602ZM42.6159 14.1959C42.5437 17.2296 42.3992 18.3852 41.9658 18.8186C41.5324 19.4687 40.8824 19.4687 40.449 19.4687H37.9209V17.5907H39.7989C40.449 17.5907 40.5212 17.5907 40.7379 15.6405H35.6818V20.3355H33.8761V16.0739C32.5759 17.5185 29.3978 19.3243 26.6531 19.8299V17.9519C28.6033 17.5907 30.409 16.724 32.1425 15.4961H27.4476V11.09H33.8761V9.93435H27.1587V8.41752H27.3754H27.5921H28.7477H41.8936V12.8236H35.6096V14.2681L42.6159 14.1959ZM35.6096 11.3067H40.0878V9.93435H35.6096V11.3067ZM33.8761 12.7513H29.1811V14.1959H33.8761V12.7513Z" fill="#231815"/>
<path d="M46.0828 4.87891V19.6138H61.4678V4.87891H46.0828ZM56.1228 6.54019H59.5898V13.402H56.4839C56.195 13.402 56.1228 13.2576 56.1228 12.9687V6.54019ZM50.4888 6.54019V9.14047C50.4888 11.5963 49.6943 12.5353 47.9608 13.3298V6.54019H50.4888ZM47.9608 17.8081V15.3522C50.5611 14.2688 52.2224 12.3908 52.2224 9.64609V6.54019H54.4615V13.7632C54.4615 15.0633 55.1115 15.28 55.9783 15.28H59.662V17.8081H47.9608Z" fill="#231815"/>
<path d="M80.8972 15.7128C80.825 17.9519 80.6805 20.1911 79.0192 20.1911H74.8299C74.541 20.1911 73.2408 20.191 73.2408 18.8187V3.65039H75.191V9.06764C76.8523 8.56203 79.3804 7.18968 80.4638 6.46738V8.77872C79.3804 9.50102 76.9245 10.5845 75.191 11.2345V17.7352C75.191 18.3131 75.4799 18.3131 75.8411 18.3131H78.2969C78.8748 18.3131 79.0914 17.8797 79.0914 15.7128H80.8972ZM68.9792 3.65039V7.91197H63.9954V9.78994H68.9792V16.1462C68.4014 16.4351 65.6567 17.1574 63.9954 17.3741V19.4688C65.8011 19.1798 67.3902 18.602 68.9792 18.0242V20.48H70.9295V3.65039H68.9792Z" fill="#231815"/>
<path d="M100.255 5.09499H97.6544V3.65039H100.255V5.09499ZM88.1923 17.5908V14.7016H90.4314V16.074C91.4426 15.785 93.754 14.9905 95.0542 14.196L94.9819 12.5347C94.6208 12.7514 94.3318 12.8958 93.3928 13.3292V7.83974H95.1986C95.2708 9.64549 95.4153 11.6679 95.8487 13.7626C95.3431 14.6293 94.0429 16.0017 92.815 17.3019H94.9097C95.2708 16.9407 95.9931 16.2906 96.3543 15.7128C96.7877 16.8685 97.7267 18.0964 98.6657 18.0964C99.8936 18.0964 100.688 15.5683 100.977 14.196H99.388C99.2435 14.7016 98.9546 15.9295 98.6657 15.9295C98.2323 15.9295 97.8711 14.6293 97.7266 14.1237C98.9545 12.318 99.6768 10.0789 99.8935 9.28434H98.2323C97.8711 10.44 97.5822 11.1623 97.2933 11.8846C97.0766 10.3678 97.0043 9.42879 97.0043 7.98419H100.544V6.46738H96.9321C96.9321 6.034 96.8599 4.156 96.8599 3.72262H95.2708C95.3431 5.23945 95.3431 5.88954 95.3431 6.46738H92.0205V14.1237C91.5149 14.3404 91.2982 14.3404 91.0093 14.4127V13.1125H88.4812V11.0901H91.4427V9.35657H88.4812V7.40636H91.0093V5.60061H88.4812V3.65039H86.8199V5.60061H84.1474V7.40636H86.8199V9.35657H83.714V11.0901H86.8199V16.1462C86.6032 15.8573 86.3143 15.4239 86.0254 14.6294C86.0976 13.3292 86.0976 12.8958 86.0976 12.4625H84.5086C84.5808 16.2184 84.3641 17.1574 83.4251 18.0242V20.5522C84.1474 19.9744 85.3753 19.1798 85.8087 17.0129C86.6032 18.2408 87.3978 19.0354 88.9868 19.6132C89.348 19.7577 90.3592 20.1188 91.6593 20.1188H100.688V18.3853H91.6593C91.0815 18.3853 89.6369 18.3853 88.1923 17.5908Z" fill="#231815"/>
<path d="M138.681 6.25067H129.219V4.37269H138.681V6.25067ZM128.425 9.35657V11.2345H134.709V18.0242C134.709 18.4575 134.492 18.5298 134.131 18.5298H131.386V20.48H134.709C135.937 20.48 136.659 20.2633 136.659 18.8909V11.2345H139.404V9.35657H128.425ZM126.041 3.65039C125.247 5.31168 123.585 6.61182 122.502 7.26189V9.71772C125.03 8.34535 127.558 5.23945 128.28 3.65039H126.041ZM126.475 7.62304C125.824 8.77872 124.524 10.9456 122.502 12.5347V15.135C123.152 14.7738 123.946 14.1237 124.524 13.4737V20.48H126.475V11.0179C127.414 9.71771 128.136 8.34534 128.497 7.62304H126.475Z" fill="#231815"/>
<path d="M104.155 17.1555C104.155 15.7831 103.866 14.5552 103.794 14.1218H105.311C105.528 14.9163 105.672 16.2165 105.744 17.1555H104.155ZM110.006 16.7221C110.15 16.2165 110.367 15.2053 110.439 13.9051H108.995C108.923 15.0608 108.85 15.4942 108.634 16.7221H110.006ZM111.451 4.08185H119.54V12.2439H116.073C116.146 12.8217 116.29 13.3273 116.723 14.483C117.518 13.9774 118.096 13.4717 118.529 13.0384H120.696C120.046 13.9051 118.746 15.133 117.446 15.9276C118.312 17.2277 119.251 17.95 120.046 18.3834V20.4781C115.929 18.5279 114.773 14.5552 114.34 12.1716H113.184V18.0945C113.834 18.0222 115.134 17.7333 115.784 17.5166V19.1779C114.556 19.6113 112.823 19.9002 111.378 20.0447L111.451 4.08185ZM113.184 7.40444H117.662V5.67092H113.184V7.40444ZM117.735 10.5825V8.84903H113.256V10.5825H117.735ZM108.056 13.1106V17.7333C108.272 17.6611 110.367 17.4444 110.728 17.3722V19.0335C109.284 19.3224 105.311 19.9002 103.433 20.1169V18.3112C104.011 18.2389 104.444 18.2389 106.322 18.0222V13.1106H103.361V11.3771H106.322V9.86025H104.661V8.70457C104.372 8.99349 103.722 9.42687 103.216 9.78802V7.62112C104.589 6.53767 105.455 5.52645 106.322 3.7207H108.272C108.995 5.09307 109.5 5.74315 110.728 6.68214V8.9935C110.367 8.77681 109.717 8.34343 109.645 8.2712V9.86025H108.056V11.3771H110.728V13.0384L108.056 13.1106ZM109.573 8.19897C108.417 7.11552 107.622 5.81538 107.261 5.30977C106.972 5.81538 106.394 6.8266 105.167 8.19897H109.573Z" fill="#231815"/>
<path d="M0 20.2638V13.2575C10.7623 12.1741 16.9018 9.50158 18.6353 0.833984H20.5133C18.7798 11.2351 13.2903 17.808 0 20.2638Z" fill="#ECA515"/>
<path d="M17.4796 0.761719C17.1907 3.50646 15.096 7.55134 11.9901 9.21263C11.9901 9.21263 15.2405 6.03451 15.6016 0.761719H17.4796Z" fill="#0A68AF"/>
<path d="M0 23.2975V21.4918C0 21.4918 5.48948 20.4806 9.10098 18.4581C9.17321 18.3859 5.34502 21.9252 0 23.2975Z" fill="#0A68AF"/>
<path d="M11.1956 5.02245C10.9789 6.03367 10.4733 7.18933 9.46212 7.98386C7.51192 9.71738 4.26158 9.21178 4.26158 9.21178C4.26158 9.21178 4.26157 5.88921 6.21178 4.22792C7.15077 3.43339 8.37868 3.14446 9.46212 3C9.31766 3.07223 9.24543 3.14447 9.10098 3.2167C8.23422 3.939 8.23423 5.23914 8.23423 5.31137V5.74475L8.66759 5.81696C8.66759 5.81696 8.88428 5.81696 9.10098 5.81696C9.60658 5.81696 10.3289 5.67251 10.9067 5.23913C11.0512 5.23913 11.1234 5.16691 11.1956 5.02245ZM8.81206 5.3836C8.81206 5.3836 9.89551 5.60029 10.69 4.95022C11.3401 4.30015 11.3401 3.2167 11.3401 3.2167C11.3401 3.2167 10.2567 3 9.46212 3.65007C8.81206 4.30013 8.81206 5.3836 8.81206 5.3836Z" fill="#ECA515"/>
</svg>
