<svg width="104" height="31" viewBox="0 0 104 31" fill="none" xmlns="http://www.w3.org/2000/svg">
<path d="M3.82188 25.74C3.89829 25.8164 2.44658 21.3849 7.71858 19.4747C8.32983 19.2455 8.48264 19.4747 8.63545 19.7039C8.86467 20.086 9.47591 20.7736 9.85793 21.0792C10.24 21.3849 10.3164 21.4613 9.93434 22.2253C7.71858 27.1917 3.74548 25.6636 3.82188 25.74ZM14.1367 23.9063C14.0603 23.0658 13.9074 22.913 13.6018 22.913C13.1434 22.8366 12.3029 22.6074 11.9209 22.3781C11.5389 22.1489 11.3097 22.0725 10.9276 22.4545C7.18374 26.5041 10.5456 29.8659 10.4692 29.7895C10.24 29.7895 14.4423 29.2547 14.1367 23.9063ZM7.03092 18.9399C7.71857 18.4814 7.87139 18.3286 7.64217 17.9466C7.48936 17.4882 7.26014 16.5713 7.26014 16.1129C7.26014 15.6544 7.10734 15.5016 6.57249 15.4252C1.14769 14.2027 0.00159446 18.8635 0.00159446 18.7107C-0.0748113 18.5579 2.59939 21.9197 7.03092 18.9399ZM6.11406 14.5084C6.95452 14.5084 7.26015 14.4319 7.33655 13.9735C7.41296 13.5151 7.64217 12.6746 7.87139 12.2926C8.10061 11.7577 8.0242 11.6813 7.64217 11.2993C3.66907 7.40261 0.307213 10.7645 0.307213 10.6117C0.307213 10.4588 0.765652 14.7376 6.11406 14.5084ZM7.64217 10.306C8.40623 10.6881 8.71185 10.7645 8.94107 10.3824C9.24669 10.0004 10.0107 9.23635 10.3164 9.08354C10.5456 8.93073 10.622 8.77791 10.4692 8.24307C8.86466 2.97107 4.28031 4.26998 4.35672 4.19357C4.43313 3.96436 2.82861 7.93746 7.64217 10.306ZM11.004 7.32619C11.4625 8.01384 11.6917 8.24306 12.1501 8.09025C12.6085 7.93744 13.449 7.70824 13.9074 7.63183C14.4423 7.55543 14.4423 7.4026 14.5951 6.94416C16.0468 1.59576 11.3096 0.373281 11.386 0.296875C11.5389 0.296875 8.1006 2.81825 11.004 7.32619ZM15.4356 6.48575C15.512 7.32621 15.5884 7.55543 16.0468 7.63183C16.5816 7.70824 17.4221 7.93744 17.8805 8.16666C18.2626 8.39588 18.4918 8.24308 18.721 8.01386C22.6177 4.11717 19.1794 0.602498 19.3322 0.678904C19.4087 0.678904 15.2064 1.13734 15.4356 6.48575ZM19.8671 8.01386C19.4851 8.77792 19.4851 9.00712 19.8671 9.23634C20.4783 9.69477 20.7076 10.0004 21.0896 10.4588C21.3952 10.9173 21.548 10.9937 22.0829 10.8409C27.3549 9.23634 25.9796 4.57558 26.1324 4.65199C26.1324 4.8048 22.1593 3.2003 19.8671 8.01386ZM29.8763 11.6049H21.2424C17.7277 11.6049 14.9007 14.4319 14.9007 17.9466V30.63H15.7412V29.4075C15.7412 25.8928 17.8806 24.2883 20.784 24.2883H23.4582C26.9728 24.2883 29.7998 21.4613 29.7998 17.9466V11.6049H29.8763Z" fill="#E7211A"/>
<path d="M56.3889 17.7931C56.3889 16.1122 56.9238 11.5278 56.9238 11.5278H59.2159C59.2159 11.5278 58.8339 14.202 58.8339 17.8695C58.8339 22.9123 59.3688 24.2876 59.3688 24.2876H56.8474C56.8474 24.2876 56.3889 20.9257 56.3889 17.7931ZM70.6768 11.375H69.5307V12.8267H70.6768V11.375ZM72.3577 11.375H71.2117V12.8267H72.3577V11.375ZM64.4879 22.3774C63.8767 22.3774 63.1126 21.919 63.1126 21.3078C63.1126 20.8493 63.4947 20.2381 64.9464 20.2381C65.4048 20.2381 66.0925 20.4673 66.4745 20.6965C66.4745 21.6134 66.5509 22.3774 64.4879 22.3774ZM70.9824 15.6537V13.5144H68.7667V11.5278H66.4745V13.5144H60.5148V15.6537H66.4745V18.0987C65.5576 17.9459 64.6408 17.9459 63.9531 18.0223C62.807 18.1751 60.7441 18.7864 60.7441 21.3078C60.7441 23.5999 62.807 24.5932 64.7172 24.5932C68.3846 24.5932 68.9959 22.4538 68.9959 21.8426C69.9891 22.3774 70.9824 23.2179 70.9824 23.2179V20.3145C70.9824 20.3145 70.2948 19.7032 68.8431 18.7863V15.5773H70.9824V15.6537ZM89.2434 11.375H88.0973V12.8267H89.2434V11.375ZM90.8479 11.375H89.7018V12.8267H90.8479V11.375ZM45.9213 15.1189C45.3101 16.1122 44.6988 17.029 44.6988 17.029C48.7483 16.1122 51.3461 16.4942 53.1035 17.4875C56.0069 19.1684 54.9372 22.6831 52.4922 23.6763C47.4495 25.6629 41.1842 23.5235 41.1842 23.5235V21.2313C41.1842 21.2313 44.7752 22.3774 48.8247 22.301C52.4158 22.2246 53.5619 19.1684 49.5888 18.71C45.0809 18.1751 41.1842 20.3145 41.1842 20.3145V17.7931C42.1774 16.8762 42.5595 16.1122 43.0943 15.1189H39.7325V12.9031H44.3932C44.6988 12.2155 45.0809 11.6042 45.0809 11.5278H47.7551C47.5259 12.0626 47.2966 12.5211 47.0674 12.9031H55.3192V15.1189H45.9213ZM87.2569 17.4111V15.4245H83.0546C82.8253 15.1189 82.6725 14.8133 82.5197 14.5076H87.2569V12.4447H81.45C81.1444 11.9098 81.068 11.5278 81.068 11.5278H78.623C78.623 11.5278 78.5466 11.6042 78.9286 12.4447H72.8926V14.5076H79.9219C80.0747 14.8133 80.2275 15.1189 80.3803 15.4245H72.8162V17.4111H81.8321C82.2141 17.9459 82.5961 18.4043 82.5961 18.4043C82.5961 18.4043 78.3174 17.5639 75.3376 18.5571C72.6634 19.474 72.5869 21.9954 74.3443 23.2179C76.0252 24.364 79.005 24.5168 80.1511 24.5168C83.9714 24.5168 86.4164 23.8291 86.4164 23.8291V21.8426C86.4164 21.8426 84.3534 22.301 81.7556 22.4538C80.8388 22.5302 79.2343 22.4538 77.6297 22.2246C75.8724 21.919 75.3376 20.6201 76.8657 20.2381C77.0949 20.1617 77.8589 20.0088 80.0747 20.0853C83.4366 20.2381 86.4164 20.9257 86.4164 20.9257V18.8628C86.4164 18.8628 85.5759 18.5571 84.5827 17.4111H87.2569ZM93.1401 18.71C91.0771 20.0089 90.6951 24.2112 90.6951 24.2112H88.1737C88.1737 24.2112 88.403 21.9954 89.4726 18.6335C90.6951 14.6604 92.4525 11.4514 92.4525 11.4514H95.0502C95.0502 11.4514 93.5985 14.202 92.8345 16.4178C92.8345 16.4178 98.3357 13.0559 97.7244 20.3145C97.4952 22.683 99.4054 22.6066 100.169 21.6134C101.621 19.5504 100.017 15.1953 100.017 15.1953H102.385C102.385 15.1953 103.837 18.7864 102.767 21.7662C102.232 23.3707 100.857 24.5932 98.9469 24.5932C97.266 24.5932 95.4323 24.0584 95.4323 21.7662C95.4323 21.0785 95.4323 19.3212 95.4323 18.8628C95.4323 18.0223 94.5918 17.8695 93.1401 18.71Z" fill="#E7211A"/>
</svg>
