<svg width="100" height="18" viewBox="0 0 100 18" fill="none" xmlns="http://www.w3.org/2000/svg">
<path d="M88.8468 0.629743L82.4396 16.6783H85.2466L87.0162 12.2848H92.8742L94.6438 16.6783H99.1594L92.6301 0.629743H88.8468ZM87.8705 9.96599L89.8842 4.96225L91.8979 9.96599H87.8705ZM72.7372 16.6783H68.6488V0.629743H76.4595C79.3275 0.629743 81.4632 2.58242 81.4632 5.20633C81.4632 7.7082 80.3038 8.86761 78.1681 9.59986L82.0124 16.6783H77.6799L73.4695 8.74557C76.2154 8.5625 77.4359 7.83024 77.4359 5.81654C77.4359 4.04693 76.5205 2.88753 74.5679 2.88753H72.7982V16.6783H72.7372ZM62.9738 0.629743H65.9639V11.1254C65.9639 15.3969 63.401 17.2885 59.3126 17.2885C55.2241 17.2885 52.6613 15.4579 52.6613 11.1254V0.629743H56.8107V11.1254C56.8107 13.5662 57.604 14.7256 59.9228 14.7256C62.2416 14.7256 63.0349 13.5052 63.0349 11.1254V0.629743H62.9738ZM41.6164 16.6783L37.528 5.81654L33.5006 16.6783H30.6326L36.5517 0.629743H39.7858L45.9489 16.6783H41.6164ZM46.132 0.629743H42.7758L41.7385 3.3757L43.203 7.22004L43.6912 5.81654L47.6575 16.6783H52.2341L46.132 0.629743ZM38.6264 11.0644L36.5517 16.6783H39.1756L39.9689 14.6036L38.6264 11.0644ZM23.3101 0.0195312C18.0623 0.0195312 15.3773 4.04694 15.3773 8.68454C15.3773 13.3222 18.0012 17.3496 23.3101 17.3496C28.5579 17.3496 31.2428 13.3222 31.2428 8.68454C31.2428 4.04694 28.6189 0.0195312 23.3101 0.0195312ZM23.3101 15.0918C21.2964 15.0918 19.3437 13.1391 19.3437 8.62352C19.3437 4.16897 21.2964 2.15527 23.3101 2.15527C25.3238 2.15527 27.2765 4.10795 27.2765 8.62352C27.2765 13.0781 25.3238 15.0918 23.3101 15.0918ZM3.90536 0.629743L10.9838 9.47781V0.629743H13.6077V16.6783H11.2889L2.74595 5.87757V16.6783H0V0.629743H3.90536Z" fill="#C02821"/>
</svg>
