<svg width="40" height="40" viewBox="0 0 40 40" fill="none" xmlns="http://www.w3.org/2000/svg">
<path d="M40 20C40 31.0457 31.0457 40 20 40C8.9543 40 0 31.0457 0 20C0 8.9543 8.9543 0 20 0C31.0457 0 40 8.9543 40 20Z" fill="white"/>
<path fill-rule="evenodd" clip-rule="evenodd" d="M20 38C29.9411 38 38 29.9411 38 20C38 10.0589 29.9411 2 20 2C10.0589 2 2 10.0589 2 20C2 29.9411 10.0589 38 20 38ZM20 40C31.0457 40 40 31.0457 40 20C40 8.9543 31.0457 0 20 0C8.9543 0 0 8.9543 0 20C0 31.0457 8.9543 40 20 40Z" fill="#3778C8"/>
<path d="M19.0678 30.6599C19.0678 30.8639 19.2038 30.9999 19.4078 30.9999H22.5358C22.7398 30.9999 22.8758 30.8639 22.8758 30.6599V8.21988C22.8758 8.01588 22.7398 7.87988 22.5358 7.87988H19.6458C19.3738 7.87988 19.2038 7.94788 19.0338 8.08388L15.3278 10.7699C15.1578 10.9059 15.0898 11.0419 15.0898 11.2459V14.7139C15.0898 14.9859 15.2598 15.0539 15.4638 14.9179L18.9998 12.4359H19.0678V30.6599Z" fill="#3778C8"/>
</svg>
