<svg width="40" height="40" viewBox="0 0 40 40" fill="none" xmlns="http://www.w3.org/2000/svg">
<path d="M40 20C40 31.0457 31.0457 40 20 40C8.9543 40 0 31.0457 0 20C0 8.9543 8.9543 0 20 0C31.0457 0 40 8.9543 40 20Z" fill="white"/>
<path fill-rule="evenodd" clip-rule="evenodd" d="M20 38C29.9411 38 38 29.9411 38 20C38 10.0589 29.9411 2 20 2C10.0589 2 2 10.0589 2 20C2 29.9411 10.0589 38 20 38ZM20 40C31.0457 40 40 31.0457 40 20C40 8.9543 31.0457 0 20 0C8.9543 0 0 8.9543 0 20C0 31.0457 8.9543 40 20 40Z" fill="#3778C8"/>
<path d="M13.1178 30.6599C13.1178 30.8639 13.2538 30.9999 13.4578 30.9999H26.4458C26.6498 30.9999 26.7858 30.8639 26.7858 30.6599V27.9399C26.7858 27.7359 26.6498 27.5999 26.4458 27.5999H17.8778V27.5319L24.6098 19.3719C25.9698 17.7399 26.7858 16.0399 26.7858 13.9659C26.7858 10.3619 24.3038 7.50586 19.9858 7.50586C15.5998 7.50586 13.4238 10.3279 13.1178 13.0479C13.0838 13.2519 13.1858 13.4219 13.3898 13.4559L16.3818 14.0679C16.5858 14.1019 16.7218 13.9999 16.7558 13.7959C16.9938 12.0279 18.0478 10.9059 19.8838 10.9059C21.8218 10.9059 22.9438 12.2319 22.9438 13.9659C22.9438 15.2919 22.3658 16.3799 21.4478 17.5019L13.2878 27.6679C13.1518 27.8039 13.1178 27.9059 13.1178 28.1099V30.6599Z" fill="#3778C8"/>
</svg>
