<svg width="40" height="40" viewBox="0 0 40 40" fill="none" xmlns="http://www.w3.org/2000/svg">
<path d="M40 20C40 31.0457 31.0457 40 20 40C8.9543 40 0 31.0457 0 20C0 8.9543 8.9543 0 20 0C31.0457 0 40 8.9543 40 20Z" fill="white"/>
<path fill-rule="evenodd" clip-rule="evenodd" d="M20 38C29.9411 38 38 29.9411 38 20C38 10.0589 29.9411 2 20 2C10.0589 2 2 10.0589 2 20C2 29.9411 10.0589 38 20 38ZM20 40C31.0457 40 40 31.0457 40 20C40 8.9543 31.0457 0 20 0C8.9543 0 0 8.9543 0 20C0 31.0457 8.9543 40 20 40Z" fill="#3778C8"/>
<path d="M12.7437 26.4099C13.4577 29.5719 16.2797 31.3739 19.8837 31.3739C24.0317 31.3739 27.1257 28.5859 27.1257 24.3699C27.1257 21.3439 25.4257 19.3379 24.0657 18.7599V18.6919C25.7657 17.5699 26.6497 15.8359 26.6497 13.8979C26.6497 10.1579 24.1677 7.50586 19.8497 7.50586C16.1097 7.50586 13.5597 9.64786 13.0497 12.4359C13.0157 12.6399 13.1177 12.8099 13.3217 12.8439L16.2117 13.5239C16.4157 13.5579 16.5517 13.4899 16.6197 13.2859C17.0277 11.8579 18.0137 10.9059 19.7137 10.9059C21.6517 10.9059 22.8077 12.1979 22.8077 14.0339C22.8077 16.0739 21.4817 17.3999 19.4417 17.3999H18.5237C18.3197 17.3999 18.1837 17.5359 18.1837 17.7399V20.4259C18.1837 20.6299 18.3197 20.7659 18.5237 20.7659H19.5097C21.7877 20.7659 23.2837 22.1939 23.2837 24.5399C23.2837 26.5119 22.0257 27.9739 19.8837 27.9739C17.9797 27.9739 16.8577 26.8859 16.3817 25.5259C16.3137 25.3219 16.1437 25.2539 15.9737 25.2879L13.0157 25.9679C12.8117 26.0359 12.7097 26.2059 12.7437 26.4099Z" fill="#3778C8"/>
</svg>
