<svg width="40" height="40" viewBox="0 0 40 40" fill="none" xmlns="http://www.w3.org/2000/svg">
<path d="M40 20C40 31.0457 31.0457 40 20 40C8.9543 40 0 31.0457 0 20C0 8.9543 8.9543 0 20 0C31.0457 0 40 8.9543 40 20Z" fill="white"/>
<path fill-rule="evenodd" clip-rule="evenodd" d="M20 38C29.9411 38 38 29.9411 38 20C38 10.0589 29.9411 2 20 2C10.0589 2 2 10.0589 2 20C2 29.9411 10.0589 38 20 38ZM20 40C31.0457 40 40 31.0457 40 20C40 8.9543 31.0457 0 20 0C8.9543 0 0 8.9543 0 20C0 31.0457 8.9543 40 20 40Z" fill="#3778C8"/>
<path d="M12.5744 27.4639H21.6524C21.7884 27.4639 21.8564 27.5319 21.8564 27.6679V30.6599C21.8564 30.8639 21.9924 30.9999 22.1964 30.9999H25.3244C25.5284 30.9999 25.6644 30.8639 25.6644 30.6599V27.6679C25.6644 27.5319 25.7324 27.4639 25.8684 27.4639H27.5684C27.7724 27.4639 27.9084 27.3279 27.9084 27.1239V24.4039C27.9084 24.1999 27.7724 24.0639 27.5684 24.0639H25.8684C25.7324 24.0639 25.6644 23.9959 25.6644 23.8599V18.0799C25.6644 17.8759 25.5284 17.7399 25.3244 17.7399H22.1964C21.9924 17.7399 21.8564 17.8759 21.8564 18.0799V23.8599C21.8564 23.9959 21.7884 24.0639 21.6524 24.0639H16.4164V23.9959L23.7604 8.18588C23.8284 8.01588 23.7604 7.87988 23.5224 7.87988H20.2924C20.0544 7.87988 19.9184 7.94788 19.8164 8.15188L12.3364 24.0979C12.2684 24.1999 12.2344 24.3359 12.2344 24.5059V27.1239C12.2344 27.3279 12.3704 27.4639 12.5744 27.4639Z" fill="#3778C8"/>
</svg>
