<svg width="40" height="40" viewBox="0 0 40 40" fill="none" xmlns="http://www.w3.org/2000/svg">
<path d="M40 20C40 31.0457 31.0457 40 20 40C8.9543 40 0 31.0457 0 20C0 8.9543 8.9543 0 20 0C31.0457 0 40 8.9543 40 20Z" fill="white"/>
<path fill-rule="evenodd" clip-rule="evenodd" d="M20 38C29.9411 38 38 29.9411 38 20C38 10.0589 29.9411 2 20 2C10.0589 2 2 10.0589 2 20C2 29.9411 10.0589 38 20 38ZM20 40C31.0457 40 40 31.0457 40 20C40 8.9543 31.0457 0 20 0C8.9543 0 0 8.9543 0 20C0 31.0457 8.9543 40 20 40Z" fill="#3778C8"/>
<path d="M13.4234 26.6139C13.9334 29.4699 16.6194 31.3739 20.1894 31.3739C23.2494 31.3739 25.8334 29.8439 26.7174 27.1579C27.0234 26.2399 27.1934 25.0499 27.1934 23.5199C27.1934 21.6499 26.9894 20.5619 26.6834 19.5759C25.8674 17.0599 23.6914 15.6659 20.7334 15.6659C19.0674 15.6659 17.8774 16.2439 17.3334 16.6859H17.2314V11.4839C17.2314 11.3479 17.2994 11.2799 17.4354 11.2799H26.3774C26.5814 11.2799 26.7174 11.1439 26.7174 10.9399V8.21988C26.7174 8.01588 26.5814 7.87988 26.3774 7.87988H14.0694C13.8654 7.87988 13.7294 8.01588 13.7294 8.21988V20.6639C13.7294 20.8679 13.8654 21.0039 14.0694 21.0039H16.9254C17.1634 21.0039 17.2314 20.9019 17.3334 20.6639C17.7074 19.8819 18.6254 19.0659 20.1554 19.0659C21.4814 19.0659 22.6034 19.6099 23.0454 20.9699C23.2494 21.5479 23.3514 22.2619 23.3514 23.5199C23.3514 24.7099 23.2834 25.4579 23.0454 26.0699C22.6374 27.2939 21.5154 27.9739 20.1894 27.9739C18.4894 27.9739 17.4354 27.0559 16.9934 25.7639C16.9254 25.5599 16.7894 25.4579 16.5854 25.4919L13.6954 26.2059C13.4914 26.2739 13.3894 26.4439 13.4234 26.6139Z" fill="#3778C8"/>
</svg>
