<svg width="40" height="40" viewBox="0 0 40 40" fill="none" xmlns="http://www.w3.org/2000/svg">
<path d="M40 20C40 31.0457 31.0457 40 20 40C8.9543 40 0 31.0457 0 20C0 8.9543 8.9543 0 20 0C31.0457 0 40 8.9543 40 20Z" fill="white"/>
<path fill-rule="evenodd" clip-rule="evenodd" d="M20 38C29.9411 38 38 29.9411 38 20C38 10.0589 29.9411 2 20 2C10.0589 2 2 10.0589 2 20C2 29.9411 10.0589 38 20 38ZM20 40C31.0457 40 40 31.0457 40 20C40 8.9543 31.0457 0 20 0C8.9543 0 0 8.9543 0 20C0 31.0457 8.9543 40 20 40Z" fill="#3778C8"/>
<path d="M12.6416 24.2339C12.6416 28.7899 15.9056 31.3739 20.0196 31.3739C24.1336 31.3739 27.3976 28.7899 27.3976 24.0639C27.3976 19.8139 24.3716 17.2299 20.8016 17.2299C20.0876 17.2299 19.4076 17.3659 19.0676 17.5359L18.9996 17.4679L24.0996 8.21988C24.2016 8.01588 24.1336 7.87988 23.8956 7.87988H20.6316C20.3936 7.87988 20.3256 7.91388 20.2236 8.08388L14.1716 18.9299C13.2876 20.5619 12.6416 22.3979 12.6416 24.2339ZM16.5176 24.3019C16.5176 22.1259 17.8776 20.6299 20.0196 20.6299C22.1956 20.6299 23.5556 22.1259 23.5556 24.3019C23.5556 26.4779 22.1956 27.9739 20.0196 27.9739C17.8776 27.9739 16.5176 26.4779 16.5176 24.3019Z" fill="#3778C8"/>
</svg>
