<svg width="32" height="32" viewBox="0 0 32 32" fill="none" xmlns="http://www.w3.org/2000/svg">
<circle cx="16" cy="16" r="16" fill="#36CCC9"/>
<path d="M23.8992 23.956C23.3932 23.56 22.9752 23.208 22.4692 22.724L21.8532 22.13C22.7552 21.074 23.1072 20.524 23.5032 19.534C23.9652 18.302 24.2072 16.982 24.2072 15.464C24.2072 9.942 21.0172 6.4 16.0452 6.4C11.0512 6.4 7.7732 10.03 7.7732 15.574C7.7732 18.39 8.6312 20.788 10.2592 22.438C11.6892 23.89 13.6472 24.638 15.9792 24.638C17.5852 24.638 18.7512 24.33 20.0272 23.604C21.4792 25.056 21.6772 25.254 22.1172 25.826L23.8992 23.956ZM16.2432 20.106C16.8812 20.59 17.3212 20.986 18.0032 21.646C17.3872 21.954 16.7712 22.086 16.0232 22.086C12.8552 22.086 10.8092 19.512 10.8092 15.53C10.8092 13.264 11.4252 11.438 12.5692 10.294C13.4712 9.414 14.6372 8.952 15.9792 8.952C17.3212 8.952 18.4872 9.414 19.3672 10.294C20.5112 11.438 21.1272 13.242 21.1272 15.42C21.1272 17.62 20.7312 18.94 19.7632 20.128C18.8612 19.248 18.4212 18.808 18.0472 18.346L16.2432 20.106Z" fill="white"/>
</svg>
